  0
SECTION
  2
HEADER
  9
$ANGBASE
  50
0.0
  9
$ANGDIR
  70
1
  9
$MEASUREMENT
  70
0
  9
$INSUNITS
  70
1
  0
ENDSEC
  0
SECTION
  2
TABLES
  0
TABLE
  2
LTYPE
  70
4
  0
LTYPE
  5
40F
  2
CONTINUOUS
  70
0
  3
Solid line
  72
65
  73
0
  40
0.0
  0
LTYPE
  5
410
  2
DASHDOT
 70
0
  3
Dash Dot ____ _ ____ _
 72
65
 73
4
 40
2.0
 49
1.25
 49
-0.25
 49
0.25
 49
-0.25
  0
LTYPE
  5
411
  2
DASHED
 70
0
  3
Dashed __ __ __ __ __
 72
65
 73
2
 40
0.75
 49
0.5
 49
-0.25
  0
LTYPE
  5
43B
  2
DOTTED
 70
0
  3
Dotted .  .  .  .
 72
65
 73
2
 40
0.2
 49
0.0
 49
-0.2
  0
ENDTAB
  0
TABLE
  2
STYLE
  70
4
  0
STYLE
  2
KICAD
  70
0
  40
0
  41
1
  42
1
  50
0
  71
0
  3
isocp.shx
  0
STYLE
  2
KICADB
  70
0
  40
0
  41
1
  42
1
  50
0
  71
0
  3
isocp.shx
  0
STYLE
  2
KICADI
  70
0
  40
0
  41
1
  42
1
  50
15
  71
0
  3
isocp.shx
  0
STYLE
  2
KICADBI
  70
0
  40
0
  41
1
  42
1
  50
15
  71
0
  3
isocp.shx
  0
ENDTAB
  0
TABLE
  2
LAYER
  70
3
  0
LAYER
  2
F.Silkscreen
  70
0
  62
41
  420
15920545
  6
CONTINUOUS
  0
LAYER
  2
B.Silkscreen
  70
0
  62
31
  420
15250087
  6
CONTINUOUS
  0
LAYER
  2
Edge.Cuts
  70
0
  62
254
  420
13685453
  6
CONTINUOUS
  0
ENDTAB
  0
ENDSEC
  0
SECTION
  2
ENTITIES
0
LINE
8
F.Silkscreen
6
CONTINUOUS
10
6.2992125984251963
20
-6.8110236220472435
11
6.1023622047244093
21
-6.5354330708661417
0
LINE
8
F.Silkscreen
6
CONTINUOUS
10
6.1023622047244093
20
-6.5354330708661417
11
6.1023622047244093
21
-3.6614173228346454
0
LINE
8
F.Silkscreen
6
CONTINUOUS
10
6.1023622047244093
20
-3.6614173228346454
11
6.2795275590551176
21
-3.4055118110236218
0
LINE
8
F.Silkscreen
6
CONTINUOUS
10
6.2795275590551176
20
-3.4055118110236218
11
6.2992125984251963
21
-3.3858267716535431
0
LINE
8
F.Silkscreen
6
CONTINUOUS
10
6.2992125984251963
20
-3.3858267716535431
11
6.2992125984251963
21
-6.8110236220472435
0
LINE
8
F.Silkscreen
6
CONTINUOUS
10
10.8267716535433074
20
-3.6614173228346454
11
10.8267716535433074
21
-6.5354330708661417
0
LINE
8
F.Silkscreen
6
CONTINUOUS
10
10.8267716535433074
20
-6.5354330708661417
11
10.6496062992125982
21
-6.7913385826771648
0
LINE
8
F.Silkscreen
6
CONTINUOUS
10
10.6496062992125982
20
-6.7913385826771648
11
10.6299212598425186
21
-6.8110236220472435
0
LINE
8
F.Silkscreen
6
CONTINUOUS
10
10.6299212598425186
20
-6.8110236220472435
11
10.6299212598425186
21
-3.3858267716535431
0
LINE
8
F.Silkscreen
6
CONTINUOUS
10
10.6299212598425186
20
-3.3858267716535431
11
10.8267716535433074
21
-3.6614173228346454
0
LINE
8
F.Silkscreen
6
CONTINUOUS
10
8.4662073622047238
20
-4.4182212598425199
11
8.4670220078740162
21
-4.4190359055118114
0
LINE
8
F.Silkscreen
6
CONTINUOUS
10
8.4670220078740162
20
-4.4190359055118114
11
8.4674629133858268
21
-4.4201003149606297
0
LINE
8
F.Silkscreen
6
CONTINUOUS
10
8.4674629133858268
20
-4.4201003149606297
11
8.4675196456692916
21
-4.4206763779527556
0
LINE
8
F.Silkscreen
6
CONTINUOUS
10
8.4675196456692916
20
-4.4206763779527556
11
8.4675196456692916
21
-4.460046456692913
0
LINE
8
F.Silkscreen
6
CONTINUOUS
10
8.4675196456692916
20
-4.460046456692913
11
8.4674629133858268
21
-4.4606225196850389
0
LINE
8
F.Silkscreen
6
CONTINUOUS
10
8.4674629133858268
20
-4.4606225196850389
11
8.4670220078740162
21
-4.4616869291338581
0
LINE
8
F.Silkscreen
6
CONTINUOUS
10
8.4670220078740162
20
-4.4616869291338581
11
8.4662073622047238
21
-4.4625015748031496
0
LINE
8
F.Silkscreen
6
CONTINUOUS
10
8.4662073622047238
20
-4.4625015748031496
11
8.4651429527559046
21
-4.4629424803149602
0
LINE
8
F.Silkscreen
6
CONTINUOUS
10
8.4651429527559046
20
-4.4629424803149602
11
8.4645668897637787
21
-4.462999212598425
0
LINE
8
F.Silkscreen
6
CONTINUOUS
10
8.4645668897637787
20
-4.462999212598425
11
8.4458192519685031
21
-4.462999212598425
0
LINE
8
F.Silkscreen
6
CONTINUOUS
10
8.4458192519685031
20
-4.462999212598425
11
8.4452431889763773
21
-4.4629424803149602
0
LINE
8
F.Silkscreen
6
CONTINUOUS
10
8.4452431889763773
20
-4.4629424803149602
11
8.444178779527558
21
-4.4625015748031496
0
LINE
8
F.Silkscreen
6
CONTINUOUS
10
8.444178779527558
20
-4.4625015748031496
11
8.4433641338582675
21
-4.4616869291338581
0
LINE
8
F.Silkscreen
6
CONTINUOUS
10
8.4433641338582675
20
-4.4616869291338581
11
8.4429232283464568
21
-4.4606225196850389
0
LINE
8
F.Silkscreen
6
CONTINUOUS
10
8.4429232283464568
20
-4.4606225196850389
11
8.4429232283464568
21
-4.4594703937007871
0
LINE
8
F.Silkscreen
6
CONTINUOUS
10
8.4429232283464568
20
-4.4594703937007871
11
8.4433641338582675
21
-4.4584059842519688
0
LINE
8
F.Silkscreen
6
CONTINUOUS
10
8.4433641338582675
20
-4.4584059842519688
11
8.444178779527558
21
-4.4575913385826773
0
LINE
8
F.Silkscreen
6
CONTINUOUS
10
8.444178779527558
20
-4.4575913385826773
11
8.4452431889763773
21
-4.4571504330708658
0
LINE
8
F.Silkscreen
6
CONTINUOUS
10
8.4452431889763773
20
-4.4571504330708658
11
8.4458192519685031
21
-4.4570937007874019
0
LINE
8
F.Silkscreen
6
CONTINUOUS
10
8.4458192519685031
20
-4.4570937007874019
11
8.4616141338582676
21
-4.4570937007874019
0
LINE
8
F.Silkscreen
6
CONTINUOUS
10
8.4616141338582676
20
-4.4570937007874019
11
8.4616141338582676
21
-4.4442515748031495
0
LINE
8
F.Silkscreen
6
CONTINUOUS
10
8.4616141338582676
20
-4.4442515748031495
11
8.4514435433070858
21
-4.4442515748031495
0
LINE
8
F.Silkscreen
6
CONTINUOUS
10
8.4514435433070858
20
-4.4442515748031495
11
8.4508674803149599
21
-4.4441948425196847
0
LINE
8
F.Silkscreen
6
CONTINUOUS
10
8.4508674803149599
20
-4.4441948425196847
11
8.4498030708661407
21
-4.443753937007874
0
LINE
8
F.Silkscreen
6
CONTINUOUS
10
8.4498030708661407
20
-4.443753937007874
11
8.4489884251968501
21
-4.4429392913385826
0
LINE
8
F.Silkscreen
6
CONTINUOUS
10
8.4489884251968501
20
-4.4429392913385826
11
8.4485475196850395
21
-4.4418748818897633
0
LINE
8
F.Silkscreen
6
CONTINUOUS
10
8.4485475196850395
20
-4.4418748818897633
11
8.4485475196850395
21
-4.4407227559055116
0
LINE
8
F.Silkscreen
6
CONTINUOUS
10
8.4485475196850395
20
-4.4407227559055116
11
8.4489884251968501
21
-4.4396583464566932
0
LINE
8
F.Silkscreen
6
CONTINUOUS
10
8.4489884251968501
20
-4.4396583464566932
11
8.4498030708661407
21
-4.4388437007874018
0
LINE
8
F.Silkscreen
6
CONTINUOUS
10
8.4498030708661407
20
-4.4388437007874018
11
8.4508674803149599
21
-4.4384027952755902
0
LINE
8
F.Silkscreen
6
CONTINUOUS
10
8.4508674803149599
20
-4.4384027952755902
11
8.4514435433070858
21
-4.4383460629921263
0
LINE
8
F.Silkscreen
6
CONTINUOUS
10
8.4514435433070858
20
-4.4383460629921263
11
8.4616141338582676
21
-4.4383460629921263
0
LINE
8
F.Silkscreen
6
CONTINUOUS
10
8.4616141338582676
20
-4.4383460629921263
11
8.4616141338582676
21
-4.4206763779527556
0
LINE
8
F.Silkscreen
6
CONTINUOUS
10
8.4616141338582676
20
-4.4206763779527556
11
8.4616708661417324
21
-4.4201003149606297
0
LINE
8
F.Silkscreen
6
CONTINUOUS
10
8.4616708661417324
20
-4.4201003149606297
11
8.462111771653543
21
-4.4190359055118114
0
LINE
8
F.Silkscreen
6
CONTINUOUS
10
8.462111771653543
20
-4.4190359055118114
11
8.4629264173228336
21
-4.4182212598425199
0
LINE
8
F.Silkscreen
6
CONTINUOUS
10
8.4629264173228336
20
-4.4182212598425199
11
8.4639908267716528
21
-4.4177803543307084
0
LINE
8
F.Silkscreen
6
CONTINUOUS
10
8.4639908267716528
20
-4.4177803543307084
11
8.4651429527559046
21
-4.4177803543307084
0
LINE
8
F.Silkscreen
6
CONTINUOUS
10
8.4651429527559046
20
-4.4177803543307084
11
8.4662073622047238
21
-4.4182212598425199
0
LINE
8
F.Silkscreen
6
CONTINUOUS
10
8.5007635039370069
20
-4.4177803543307084
11
8.5018279133858261
21
-4.4182212598425199
0
LINE
8
F.Silkscreen
6
CONTINUOUS
10
8.5018279133858261
20
-4.4182212598425199
11
8.5026425590551185
21
-4.4190359055118114
0
LINE
8
F.Silkscreen
6
CONTINUOUS
10
8.5026425590551185
20
-4.4190359055118114
11
8.5030834645669291
21
-4.4201003149606297
0
LINE
8
F.Silkscreen
6
CONTINUOUS
10
8.5030834645669291
20
-4.4201003149606297
11
8.5031401968503939
21
-4.4206763779527556
0
LINE
8
F.Silkscreen
6
CONTINUOUS
10
8.5031401968503939
20
-4.4206763779527556
11
8.5031401968503939
21
-4.460046456692913
0
LINE
8
F.Silkscreen
6
CONTINUOUS
10
8.5031401968503939
20
-4.460046456692913
11
8.5030834645669291
21
-4.4606225196850389
0
LINE
8
F.Silkscreen
6
CONTINUOUS
10
8.5030834645669291
20
-4.4606225196850389
11
8.5026425590551185
21
-4.4616869291338581
0
LINE
8
F.Silkscreen
6
CONTINUOUS
10
8.5026425590551185
20
-4.4616869291338581
11
8.5018279133858261
21
-4.4625015748031496
0
LINE
8
F.Silkscreen
6
CONTINUOUS
10
8.5018279133858261
20
-4.4625015748031496
11
8.5007635039370069
21
-4.4629424803149602
0
LINE
8
F.Silkscreen
6
CONTINUOUS
10
8.5007635039370069
20
-4.4629424803149602
11
8.500187440944881
21
-4.462999212598425
0
LINE
8
F.Silkscreen
6
CONTINUOUS
10
8.500187440944881
20
-4.462999212598425
11
8.4814398031496054
21
-4.462999212598425
0
LINE
8
F.Silkscreen
6
CONTINUOUS
10
8.4814398031496054
20
-4.462999212598425
11
8.4808637401574796
21
-4.4629424803149602
0
LINE
8
F.Silkscreen
6
CONTINUOUS
10
8.4808637401574796
20
-4.4629424803149602
11
8.4797993307086621
21
-4.4625015748031496
0
LINE
8
F.Silkscreen
6
CONTINUOUS
10
8.4797993307086621
20
-4.4625015748031496
11
8.4789846850393698
21
-4.4616869291338581
0
LINE
8
F.Silkscreen
6
CONTINUOUS
10
8.4789846850393698
20
-4.4616869291338581
11
8.4785437795275591
21
-4.4606225196850389
0
LINE
8
F.Silkscreen
6
CONTINUOUS
10
8.4785437795275591
20
-4.4606225196850389
11
8.4785437795275591
21
-4.4594703937007871
0
LINE
8
F.Silkscreen
6
CONTINUOUS
10
8.4785437795275591
20
-4.4594703937007871
11
8.4789846850393698
21
-4.4584059842519688
0
LINE
8
F.Silkscreen
6
CONTINUOUS
10
8.4789846850393698
20
-4.4584059842519688
11
8.4797993307086621
21
-4.4575913385826773
0
LINE
8
F.Silkscreen
6
CONTINUOUS
10
8.4797993307086621
20
-4.4575913385826773
11
8.4808637401574796
21
-4.4571504330708658
0
LINE
8
F.Silkscreen
6
CONTINUOUS
10
8.4808637401574796
20
-4.4571504330708658
11
8.4814398031496054
21
-4.4570937007874019
0
LINE
8
F.Silkscreen
6
CONTINUOUS
10
8.4814398031496054
20
-4.4570937007874019
11
8.4972346850393699
21
-4.4570937007874019
0
LINE
8
F.Silkscreen
6
CONTINUOUS
10
8.4972346850393699
20
-4.4570937007874019
11
8.4972346850393699
21
-4.4442515748031495
0
LINE
8
F.Silkscreen
6
CONTINUOUS
10
8.4972346850393699
20
-4.4442515748031495
11
8.4870640944881881
21
-4.4442515748031495
0
LINE
8
F.Silkscreen
6
CONTINUOUS
10
8.4870640944881881
20
-4.4442515748031495
11
8.4864880314960622
21
-4.4441948425196847
0
LINE
8
F.Silkscreen
6
CONTINUOUS
10
8.4864880314960622
20
-4.4441948425196847
11
8.4854236220472448
21
-4.443753937007874
0
LINE
8
F.Silkscreen
6
CONTINUOUS
10
8.4854236220472448
20
-4.443753937007874
11
8.4846089763779524
21
-4.4429392913385826
0
LINE
8
F.Silkscreen
6
CONTINUOUS
10
8.4846089763779524
20
-4.4429392913385826
11
8.4841680708661418
21
-4.4418748818897633
0
LINE
8
F.Silkscreen
6
CONTINUOUS
10
8.4841680708661418
20
-4.4418748818897633
11
8.4841680708661418
21
-4.4407227559055116
0
LINE
8
F.Silkscreen
6
CONTINUOUS
10
8.4841680708661418
20
-4.4407227559055116
11
8.4846089763779524
21
-4.4396583464566932
0
LINE
8
F.Silkscreen
6
CONTINUOUS
10
8.4846089763779524
20
-4.4396583464566932
11
8.4854236220472448
21
-4.4388437007874018
0
LINE
8
F.Silkscreen
6
CONTINUOUS
10
8.4854236220472448
20
-4.4388437007874018
11
8.4864880314960622
21
-4.4384027952755902
0
LINE
8
F.Silkscreen
6
CONTINUOUS
10
8.4864880314960622
20
-4.4384027952755902
11
8.4870640944881881
21
-4.4383460629921263
0
LINE
8
F.Silkscreen
6
CONTINUOUS
10
8.4870640944881881
20
-4.4383460629921263
11
8.4972346850393699
21
-4.4383460629921263
0
LINE
8
F.Silkscreen
6
CONTINUOUS
10
8.4972346850393699
20
-4.4383460629921263
11
8.4972346850393699
21
-4.4236291338582676
0
LINE
8
F.Silkscreen
6
CONTINUOUS
10
8.4972346850393699
20
-4.4236291338582676
11
8.4814398031496054
21
-4.4236291338582676
0
LINE
8
F.Silkscreen
6
CONTINUOUS
10
8.4814398031496054
20
-4.4236291338582676
11
8.4808637401574796
21
-4.4235724015748028
0
LINE
8
F.Silkscreen
6
CONTINUOUS
10
8.4808637401574796
20
-4.4235724015748028
11
8.4797993307086621
21
-4.4231314960629922
0
LINE
8
F.Silkscreen
6
CONTINUOUS
10
8.4797993307086621
20
-4.4231314960629922
11
8.4789846850393698
21
-4.4223168503937007
0
LINE
8
F.Silkscreen
6
CONTINUOUS
10
8.4789846850393698
20
-4.4223168503937007
11
8.4785437795275591
21
-4.4212524409448815
0
LINE
8
F.Silkscreen
6
CONTINUOUS
10
8.4785437795275591
20
-4.4212524409448815
11
8.4785437795275591
21
-4.4201003149606297
0
LINE
8
F.Silkscreen
6
CONTINUOUS
10
8.4785437795275591
20
-4.4201003149606297
11
8.4789846850393698
21
-4.4190359055118114
0
LINE
8
F.Silkscreen
6
CONTINUOUS
10
8.4789846850393698
20
-4.4190359055118114
11
8.4797993307086621
21
-4.4182212598425199
0
LINE
8
F.Silkscreen
6
CONTINUOUS
10
8.4797993307086621
20
-4.4182212598425199
11
8.4808637401574796
21
-4.4177803543307084
0
LINE
8
F.Silkscreen
6
CONTINUOUS
10
8.4808637401574796
20
-4.4177803543307084
11
8.4814398031496054
21
-4.4177236220472436
0
LINE
8
F.Silkscreen
6
CONTINUOUS
10
8.4814398031496054
20
-4.4177236220472436
11
8.500187440944881
21
-4.4177236220472436
0
LINE
8
F.Silkscreen
6
CONTINUOUS
10
8.500187440944881
20
-4.4177236220472436
11
8.5007635039370069
21
-4.4177803543307084
0
LINE
8
F.Silkscreen
6
CONTINUOUS
10
8.5181309055118106
20
-4.4179245275590553
11
8.5191025196850383
21
-4.4185437007874011
0
LINE
8
F.Silkscreen
6
CONTINUOUS
10
8.5191025196850383
20
-4.4185437007874011
11
8.5194793307086609
21
-4.4189830708661413
0
LINE
8
F.Silkscreen
6
CONTINUOUS
10
8.5194793307086609
20
-4.4189830708661413
11
8.5317210629921263
21
-4.4364712992125988
0
LINE
8
F.Silkscreen
6
CONTINUOUS
10
8.5317210629921263
20
-4.4364712992125988
11
8.5366047637795273
21
-4.4364712992125988
0
LINE
8
F.Silkscreen
6
CONTINUOUS
10
8.5366047637795273
20
-4.4364712992125988
11
8.5366047637795273
21
-4.4206763779527556
0
LINE
8
F.Silkscreen
6
CONTINUOUS
10
8.5366047637795273
20
-4.4206763779527556
11
8.5366614960629921
21
-4.4201003149606297
0
LINE
8
F.Silkscreen
6
CONTINUOUS
10
8.5366614960629921
20
-4.4201003149606297
11
8.5371024015748027
21
-4.4190359055118114
0
LINE
8
F.Silkscreen
6
CONTINUOUS
10
8.5371024015748027
20
-4.4190359055118114
11
8.5379170472440951
21
-4.4182212598425199
0
LINE
8
F.Silkscreen
6
CONTINUOUS
10
8.5379170472440951
20
-4.4182212598425199
11
8.5389814566929125
21
-4.4177803543307084
0
LINE
8
F.Silkscreen
6
CONTINUOUS
10
8.5389814566929125
20
-4.4177803543307084
11
8.540133582677166
21
-4.4177803543307084
0
LINE
8
F.Silkscreen
6
CONTINUOUS
10
8.540133582677166
20
-4.4177803543307084
11
8.5411979921259835
21
-4.4182212598425199
0
LINE
8
F.Silkscreen
6
CONTINUOUS
10
8.5411979921259835
20
-4.4182212598425199
11
8.5420126377952759
21
-4.4190359055118114
0
LINE
8
F.Silkscreen
6
CONTINUOUS
10
8.5420126377952759
20
-4.4190359055118114
11
8.5424535433070865
21
-4.4201003149606297
0
LINE
8
F.Silkscreen
6
CONTINUOUS
10
8.5424535433070865
20
-4.4201003149606297
11
8.5425102755905513
21
-4.4206763779527556
0
LINE
8
F.Silkscreen
6
CONTINUOUS
10
8.5425102755905513
20
-4.4206763779527556
11
8.5425102755905513
21
-4.460046456692913
0
LINE
8
F.Silkscreen
6
CONTINUOUS
10
8.5425102755905513
20
-4.460046456692913
11
8.5424535433070865
21
-4.4606225196850389
0
LINE
8
F.Silkscreen
6
CONTINUOUS
10
8.5424535433070865
20
-4.4606225196850389
11
8.5420126377952759
21
-4.4616869291338581
0
LINE
8
F.Silkscreen
6
CONTINUOUS
10
8.5420126377952759
20
-4.4616869291338581
11
8.5411979921259835
21
-4.4625015748031496
0
LINE
8
F.Silkscreen
6
CONTINUOUS
10
8.5411979921259835
20
-4.4625015748031496
11
8.540133582677166
21
-4.4629424803149602
0
LINE
8
F.Silkscreen
6
CONTINUOUS
10
8.540133582677166
20
-4.4629424803149602
11
8.5395575196850384
21
-4.462999212598425
0
LINE
8
F.Silkscreen
6
CONTINUOUS
10
8.5395575196850384
20
-4.462999212598425
11
8.524559409448818
21
-4.462999212598425
0
LINE
8
F.Silkscreen
6
CONTINUOUS
10
8.524559409448818
20
-4.462999212598425
11
8.5239833464566921
21
-4.4629424803149602
0
LINE
8
F.Silkscreen
6
CONTINUOUS
10
8.5239833464566921
20
-4.4629424803149602
11
8.5238853543307087
21
-4.4629018897637796
0
LINE
8
F.Silkscreen
6
CONTINUOUS
10
8.5238853543307087
20
-4.4629018897637796
11
8.5237794881889766
21
-4.4628943700787405
0
LINE
8
F.Silkscreen
6
CONTINUOUS
10
8.5237794881889766
20
-4.4628943700787405
11
8.5232388976377944
21
-4.4626874803149601
0
LINE
8
F.Silkscreen
6
CONTINUOUS
10
8.5232388976377944
20
-4.4626874803149601
11
8.5194893700787393
21
-4.4608127165354325
0
LINE
8
F.Silkscreen
6
CONTINUOUS
10
8.5194893700787393
20
-4.4608127165354325
11
8.5192413385826775
21
-4.460656614173228
0
LINE
8
F.Silkscreen
6
CONTINUOUS
10
8.5192413385826775
20
-4.460656614173228
11
8.5191694094488195
21
-4.460626811023622
0
LINE
8
F.Silkscreen
6
CONTINUOUS
10
8.5191694094488195
20
-4.460626811023622
11
8.5190884251968502
21
-4.4605603149606301
0
LINE
8
F.Silkscreen
6
CONTINUOUS
10
8.5190884251968502
20
-4.4605603149606301
11
8.5189994881889763
21
-4.4605043700787403
0
LINE
8
F.Silkscreen
6
CONTINUOUS
10
8.5189994881889763
20
-4.4605043700787403
11
8.5189483070866139
21
-4.4604453543307088
0
LINE
8
F.Silkscreen
6
CONTINUOUS
10
8.5189483070866139
20
-4.4604453543307088
11
8.5187219685039359
21
-4.4602596062992124
0
LINE
8
F.Silkscreen
6
CONTINUOUS
10
8.5187219685039359
20
-4.4602596062992124
11
8.5168472047244084
21
-4.4583848425196848
0
LINE
8
F.Silkscreen
6
CONTINUOUS
10
8.5168472047244084
20
-4.4583848425196848
11
8.516661417322835
21
-4.458158464566929
0
LINE
8
F.Silkscreen
6
CONTINUOUS
10
8.516661417322835
20
-4.458158464566929
11
8.5166024409448813
21
-4.4581073228346453
0
LINE
8
F.Silkscreen
6
CONTINUOUS
10
8.5166024409448813
20
-4.4581073228346453
11
8.5165464566929128
21
-4.4580183464566927
0
LINE
8
F.Silkscreen
6
CONTINUOUS
10
8.5165464566929128
20
-4.4580183464566927
11
8.5164799999999996
21
-4.457937401574803
0
LINE
8
F.Silkscreen
6
CONTINUOUS
10
8.5164799999999996
20
-4.457937401574803
11
8.516450157480314
21
-4.4578654330708662
0
LINE
8
F.Silkscreen
6
CONTINUOUS
10
8.516450157480314
20
-4.4578654330708662
11
8.5162940944881882
21
-4.4576174409448814
0
LINE
8
F.Silkscreen
6
CONTINUOUS
10
8.5162940944881882
20
-4.4576174409448814
11
8.5144193307086606
21
-4.4538679133858263
0
LINE
8
F.Silkscreen
6
CONTINUOUS
10
8.5144193307086606
20
-4.4538679133858263
11
8.5142124409448812
21
-4.4533272834645672
0
LINE
8
F.Silkscreen
6
CONTINUOUS
10
8.5142124409448812
20
-4.4533272834645672
11
8.514204921259843
21
-4.4532214566929129
0
LINE
8
F.Silkscreen
6
CONTINUOUS
10
8.514204921259843
20
-4.4532214566929129
11
8.5141643307086614
21
-4.4531234645669286
0
LINE
8
F.Silkscreen
6
CONTINUOUS
10
8.5141643307086614
20
-4.4531234645669286
11
8.5141075984251966
21
-4.4525474015748028
0
LINE
8
F.Silkscreen
6
CONTINUOUS
10
8.5141075984251966
20
-4.4525474015748028
11
8.5141075984251966
21
-4.4469231102362201
0
LINE
8
F.Silkscreen
6
CONTINUOUS
10
8.5141075984251966
20
-4.4469231102362201
11
8.5141643307086614
21
-4.4463470472440942
0
LINE
8
F.Silkscreen
6
CONTINUOUS
10
8.5141643307086614
20
-4.4463470472440942
11
8.514204921259843
21
-4.4462490157480312
0
LINE
8
F.Silkscreen
6
CONTINUOUS
10
8.514204921259843
20
-4.4462490157480312
11
8.5142124409448812
21
-4.4461432283464566
0
LINE
8
F.Silkscreen
6
CONTINUOUS
10
8.5142124409448812
20
-4.4461432283464566
11
8.5144193307086606
21
-4.4456025984251966
0
LINE
8
F.Silkscreen
6
CONTINUOUS
10
8.5144193307086606
20
-4.4456025984251966
11
8.5162940944881882
21
-4.4418530708661415
0
LINE
8
F.Silkscreen
6
CONTINUOUS
10
8.5162940944881882
20
-4.4418530708661415
11
8.516450157480314
21
-4.4416050393700788
0
LINE
8
F.Silkscreen
6
CONTINUOUS
10
8.516450157480314
20
-4.4416050393700788
11
8.5164799999999996
21
-4.4415331102362208
0
LINE
8
F.Silkscreen
6
CONTINUOUS
10
8.5164799999999996
20
-4.4415331102362208
11
8.5165464566929128
21
-4.4414521259842514
0
LINE
8
F.Silkscreen
6
CONTINUOUS
10
8.5165464566929128
20
-4.4414521259842514
11
8.5166024409448813
21
-4.4413631889763776
0
LINE
8
F.Silkscreen
6
CONTINUOUS
10
8.5166024409448813
20
-4.4413631889763776
11
8.516661417322835
21
-4.441312007874016
0
LINE
8
F.Silkscreen
6
CONTINUOUS
10
8.516661417322835
20
-4.441312007874016
11
8.5168472047244084
21
-4.4410856692913381
0
LINE
8
F.Silkscreen
6
CONTINUOUS
10
8.5168472047244084
20
-4.4410856692913381
11
8.5187219685039359
21
-4.4392109055118105
0
LINE
8
F.Silkscreen
6
CONTINUOUS
10
8.5187219685039359
20
-4.4392109055118105
11
8.5189483070866139
21
-4.4390251181102363
0
LINE
8
F.Silkscreen
6
CONTINUOUS
10
8.5189483070866139
20
-4.4390251181102363
11
8.5189994881889763
21
-4.4389661417322834
0
LINE
8
F.Silkscreen
6
CONTINUOUS
10
8.5189994881889763
20
-4.4389661417322834
11
8.5190884251968502
21
-4.4389101574803149
0
LINE
8
F.Silkscreen
6
CONTINUOUS
10
8.5190884251968502
20
-4.4389101574803149
11
8.5191694094488195
21
-4.4388437007874018
0
LINE
8
F.Silkscreen
6
CONTINUOUS
10
8.5191694094488195
20
-4.4388437007874018
11
8.5192413385826775
21
-4.4388138582677161
0
LINE
8
F.Silkscreen
6
CONTINUOUS
10
8.5192413385826775
20
-4.4388138582677161
11
8.5194893700787393
21
-4.4386577952755903
0
LINE
8
F.Silkscreen
6
CONTINUOUS
10
8.5194893700787393
20
-4.4386577952755903
11
8.5232388976377944
21
-4.4367830314960628
0
LINE
8
F.Silkscreen
6
CONTINUOUS
10
8.5232388976377944
20
-4.4367830314960628
11
8.5237794881889766
21
-4.4365761417322833
0
LINE
8
F.Silkscreen
6
CONTINUOUS
10
8.5237794881889766
20
-4.4365761417322833
11
8.5238853543307087
21
-4.4365685826771655
0
LINE
8
F.Silkscreen
6
CONTINUOUS
10
8.5238853543307087
20
-4.4365685826771655
11
8.5239833464566921
21
-4.4365280314960627
0
LINE
8
F.Silkscreen
6
CONTINUOUS
10
8.5239833464566921
20
-4.4365280314960627
11
8.524515511811023
21
-4.436475590551181
0
LINE
8
F.Silkscreen
6
CONTINUOUS
10
8.524515511811023
20
-4.436475590551181
11
8.5146413779527563
21
-4.4223696850393699
0
LINE
8
F.Silkscreen
6
CONTINUOUS
10
8.5146413779527563
20
-4.4223696850393699
11
8.5143574803149598
21
-4.4218651968503933
0
LINE
8
F.Silkscreen
6
CONTINUOUS
10
8.5143574803149598
20
-4.4218651968503933
11
8.5141083070866141
21
-4.4207403543307082
0
LINE
8
F.Silkscreen
6
CONTINUOUS
10
8.5141083070866141
20
-4.4207403543307082
11
8.5143085039370074
21
-4.4196058267716536
0
LINE
8
F.Silkscreen
6
CONTINUOUS
10
8.5143085039370074
20
-4.4196058267716536
11
8.5149276771653533
21
-4.418634212598425
0
LINE
8
F.Silkscreen
6
CONTINUOUS
10
8.5149276771653533
20
-4.418634212598425
11
8.515871535433071
21
-4.4179735039370076
0
LINE
8
F.Silkscreen
6
CONTINUOUS
10
8.515871535433071
20
-4.4179735039370076
11
8.516996377952756
21
-4.4177243307086611
0
LINE
8
F.Silkscreen
6
CONTINUOUS
10
8.516996377952756
20
-4.4177243307086611
11
8.5181309055118106
21
-4.4179245275590553
0
LINE
8
F.Silkscreen
6
CONTINUOUS
10
8.5225589763779528
20
-4.4437255511811022
11
8.521361850393701
21
-4.4449226771653541
0
LINE
8
F.Silkscreen
6
CONTINUOUS
10
8.521361850393701
20
-4.4449226771653541
11
8.5200131102362207
21
-4.4476201574803147
0
LINE
8
F.Silkscreen
6
CONTINUOUS
10
8.5200131102362207
20
-4.4476201574803147
11
8.5200131102362207
21
-4.4518503543307082
0
LINE
8
F.Silkscreen
6
CONTINUOUS
10
8.5200131102362207
20
-4.4518503543307082
11
8.521361850393701
21
-4.4545478346456688
0
LINE
8
F.Silkscreen
6
CONTINUOUS
10
8.521361850393701
20
-4.4545478346456688
11
8.5225589763779528
21
-4.4557449606299215
0
LINE
8
F.Silkscreen
6
CONTINUOUS
10
8.5225589763779528
20
-4.4557449606299215
11
8.5252564566929134
21
-4.4570937007874019
0
LINE
8
F.Silkscreen
6
CONTINUOUS
10
8.5252564566929134
20
-4.4570937007874019
11
8.5366047637795273
21
-4.4570937007874019
0
LINE
8
F.Silkscreen
6
CONTINUOUS
10
8.5366047637795273
20
-4.4570937007874019
11
8.5366047637795273
21
-4.4423768110236219
0
LINE
8
F.Silkscreen
6
CONTINUOUS
10
8.5366047637795273
20
-4.4423768110236219
11
8.5252564566929134
21
-4.4423768110236219
0
LINE
8
F.Silkscreen
6
CONTINUOUS
10
8.5252564566929134
20
-4.4423768110236219
11
8.5225589763779528
21
-4.4437255511811022
0
LINE
8
F.Silkscreen
6
CONTINUOUS
10
8.4021016141732279
20
-4.4405111417322836
11
8.4030233070866132
21
-4.4412024015748033
0
LINE
8
F.Silkscreen
6
CONTINUOUS
10
8.4030233070866132
20
-4.4412024015748033
11
8.4036102755905517
21
-4.4421937795275586
0
LINE
8
F.Silkscreen
6
CONTINUOUS
10
8.4036102755905517
20
-4.4421937795275586
11
8.4037732283464557
21
-4.4433342913385827
0
LINE
8
F.Silkscreen
6
CONTINUOUS
10
8.4037732283464557
20
-4.4433342913385827
11
8.4034872834645675
21
-4.4444503543307086
0
LINE
8
F.Silkscreen
6
CONTINUOUS
10
8.4034872834645675
20
-4.4444503543307086
11
8.4031870472440939
21
-4.4449452362204722
0
LINE
8
F.Silkscreen
6
CONTINUOUS
10
8.4031870472440939
20
-4.4449452362204722
11
8.3998744488188972
21
-4.4493619685039372
0
LINE
8
F.Silkscreen
6
CONTINUOUS
10
8.3998744488188972
20
-4.4493619685039372
11
8.4056709842519677
21
-4.4516805905511809
0
LINE
8
F.Silkscreen
6
CONTINUOUS
10
8.4056709842519677
20
-4.4516805905511809
11
8.4061847637795282
21
-4.4519472047244095
0
LINE
8
F.Silkscreen
6
CONTINUOUS
10
8.4061847637795282
20
-4.4519472047244095
11
8.4070093307086609
21
-4.4527518897637792
0
LINE
8
F.Silkscreen
6
CONTINUOUS
10
8.4070093307086609
20
-4.4527518897637792
11
8.4074631496062988
21
-4.4538108267716536
0
LINE
8
F.Silkscreen
6
CONTINUOUS
10
8.4074631496062988
20
-4.4538108267716536
11
8.40747720472441
21
-4.4549628740157479
0
LINE
8
F.Silkscreen
6
CONTINUOUS
10
8.40747720472441
20
-4.4549628740157479
11
8.4070492913385824
21
-4.4560325984251969
0
LINE
8
F.Silkscreen
6
CONTINUOUS
10
8.4070492913385824
20
-4.4560325984251969
11
8.4062446456692914
21
-4.4568571259842518
0
LINE
8
F.Silkscreen
6
CONTINUOUS
10
8.4062446456692914
20
-4.4568571259842518
11
8.405185708661417
21
-4.4573109448818897
0
LINE
8
F.Silkscreen
6
CONTINUOUS
10
8.405185708661417
20
-4.4573109448818897
11
8.4040336614173228
21
-4.457325
0
LINE
8
F.Silkscreen
6
CONTINUOUS
10
8.4040336614173228
20
-4.457325
11
8.4034777559055112
21
-4.4571637401574806
0
LINE
8
F.Silkscreen
6
CONTINUOUS
10
8.4034777559055112
20
-4.4571637401574806
11
8.3981533070866146
21
-4.4550339370078742
0
LINE
8
F.Silkscreen
6
CONTINUOUS
10
8.3981533070866146
20
-4.4550339370078742
11
8.3981533070866146
21
-4.460046456692913
0
LINE
8
F.Silkscreen
6
CONTINUOUS
10
8.3981533070866146
20
-4.460046456692913
11
8.3980965748031497
21
-4.4606225196850389
0
LINE
8
F.Silkscreen
6
CONTINUOUS
10
8.3980965748031497
20
-4.4606225196850389
11
8.3976556692913391
21
-4.4616869291338581
0
LINE
8
F.Silkscreen
6
CONTINUOUS
10
8.3976556692913391
20
-4.4616869291338581
11
8.3968410236220468
21
-4.4625015748031496
0
LINE
8
F.Silkscreen
6
CONTINUOUS
10
8.3968410236220468
20
-4.4625015748031496
11
8.3957766141732275
21
-4.4629424803149602
0
LINE
8
F.Silkscreen
6
CONTINUOUS
10
8.3957766141732275
20
-4.4629424803149602
11
8.3946244881889758
21
-4.4629424803149602
0
LINE
8
F.Silkscreen
6
CONTINUOUS
10
8.3946244881889758
20
-4.4629424803149602
11
8.3935600787401565
21
-4.4625015748031496
0
LINE
8
F.Silkscreen
6
CONTINUOUS
10
8.3935600787401565
20
-4.4625015748031496
11
8.392745433070866
21
-4.4616869291338581
0
LINE
8
F.Silkscreen
6
CONTINUOUS
10
8.392745433070866
20
-4.4616869291338581
11
8.3923045275590553
21
-4.4606225196850389
0
LINE
8
F.Silkscreen
6
CONTINUOUS
10
8.3923045275590553
20
-4.4606225196850389
11
8.3922477952755905
21
-4.460046456692913
0
LINE
8
F.Silkscreen
6
CONTINUOUS
10
8.3922477952755905
20
-4.460046456692913
11
8.3922477952755905
21
-4.4550339370078742
0
LINE
8
F.Silkscreen
6
CONTINUOUS
10
8.3922477952755905
20
-4.4550339370078742
11
8.3869233464566921
21
-4.4571637401574806
0
LINE
8
F.Silkscreen
6
CONTINUOUS
10
8.3869233464566921
20
-4.4571637401574806
11
8.3863674409448823
21
-4.457325
0
LINE
8
F.Silkscreen
6
CONTINUOUS
10
8.3863674409448823
20
-4.457325
11
8.3852153937007881
21
-4.4573109448818897
0
LINE
8
F.Silkscreen
6
CONTINUOUS
10
8.3852153937007881
20
-4.4573109448818897
11
8.3841564566929137
21
-4.4568571259842518
0
LINE
8
F.Silkscreen
6
CONTINUOUS
10
8.3841564566929137
20
-4.4568571259842518
11
8.3833517716535439
21
-4.4560325984251969
0
LINE
8
F.Silkscreen
6
CONTINUOUS
10
8.3833517716535439
20
-4.4560325984251969
11
8.3829238976377951
21
-4.4549628740157479
0
LINE
8
F.Silkscreen
6
CONTINUOUS
10
8.3829238976377951
20
-4.4549628740157479
11
8.3829379527559045
21
-4.4538108267716536
0
LINE
8
F.Silkscreen
6
CONTINUOUS
10
8.3829379527559045
20
-4.4538108267716536
11
8.3833917716535424
21
-4.4527518897637792
0
LINE
8
F.Silkscreen
6
CONTINUOUS
10
8.3833917716535424
20
-4.4527518897637792
11
8.3842162992125981
21
-4.4519472047244095
0
LINE
8
F.Silkscreen
6
CONTINUOUS
10
8.3842162992125981
20
-4.4519472047244095
11
8.3847301181102356
21
-4.4516805905511809
0
LINE
8
F.Silkscreen
6
CONTINUOUS
10
8.3847301181102356
20
-4.4516805905511809
11
8.3905266141732273
21
-4.4493619685039372
0
LINE
8
F.Silkscreen
6
CONTINUOUS
10
8.3905266141732273
20
-4.4493619685039372
11
8.3872140551181094
21
-4.4449452362204722
0
LINE
8
F.Silkscreen
6
CONTINUOUS
10
8.3872140551181094
20
-4.4449452362204722
11
8.3869138188976375
21
-4.4444503543307086
0
LINE
8
F.Silkscreen
6
CONTINUOUS
10
8.3869138188976375
20
-4.4444503543307086
11
8.3866278740157476
21
-4.4433342913385827
0
LINE
8
F.Silkscreen
6
CONTINUOUS
10
8.3866278740157476
20
-4.4433342913385827
11
8.3867908267716533
21
-4.4421937795275586
0
LINE
8
F.Silkscreen
6
CONTINUOUS
10
8.3867908267716533
20
-4.4421937795275586
11
8.3873777952755901
21
-4.4412024015748033
0
LINE
8
F.Silkscreen
6
CONTINUOUS
10
8.3873777952755901
20
-4.4412024015748033
11
8.3882994881889754
21
-4.4405111417322836
0
LINE
8
F.Silkscreen
6
CONTINUOUS
10
8.3882994881889754
20
-4.4405111417322836
11
8.3894155511811022
21
-4.4402251968503936
0
LINE
8
F.Silkscreen
6
CONTINUOUS
10
8.3894155511811022
20
-4.4402251968503936
11
8.3905560629921254
21
-4.4403881496062994
0
LINE
8
F.Silkscreen
6
CONTINUOUS
10
8.3905560629921254
20
-4.4403881496062994
11
8.3915474409448816
21
-4.4409751181102362
0
LINE
8
F.Silkscreen
6
CONTINUOUS
10
8.3915474409448816
20
-4.4409751181102362
11
8.3919384645669286
21
-4.4414019291338578
0
LINE
8
F.Silkscreen
6
CONTINUOUS
10
8.3919384645669286
20
-4.4414019291338578
11
8.3952005511811016
21
-4.4457513779527558
0
LINE
8
F.Silkscreen
6
CONTINUOUS
10
8.3952005511811016
20
-4.4457513779527558
11
8.3984626377952747
21
-4.4414019291338578
0
LINE
8
F.Silkscreen
6
CONTINUOUS
10
8.3984626377952747
20
-4.4414019291338578
11
8.3988536614173235
21
-4.4409751181102362
0
LINE
8
F.Silkscreen
6
CONTINUOUS
10
8.3988536614173235
20
-4.4409751181102362
11
8.3998450393700779
21
-4.4403881496062994
0
LINE
8
F.Silkscreen
6
CONTINUOUS
10
8.3998450393700779
20
-4.4403881496062994
11
8.4009855511811029
21
-4.4402251968503936
0
LINE
8
F.Silkscreen
6
CONTINUOUS
10
8.4009855511811029
20
-4.4402251968503936
11
8.4021016141732279
21
-4.4405111417322836
0
LINE
8
F.Silkscreen
6
CONTINUOUS
10
8.4320978740157475
20
-4.4405111417322836
11
8.4330195669291328
21
-4.4412024015748033
0
LINE
8
F.Silkscreen
6
CONTINUOUS
10
8.4330195669291328
20
-4.4412024015748033
11
8.4336065354330714
21
-4.4421937795275586
0
LINE
8
F.Silkscreen
6
CONTINUOUS
10
8.4336065354330714
20
-4.4421937795275586
11
8.4337694881889753
21
-4.4433342913385827
0
LINE
8
F.Silkscreen
6
CONTINUOUS
10
8.4337694881889753
20
-4.4433342913385827
11
8.4334835433070872
21
-4.4444503543307086
0
LINE
8
F.Silkscreen
6
CONTINUOUS
10
8.4334835433070872
20
-4.4444503543307086
11
8.4331833070866136
21
-4.4449452362204722
0
LINE
8
F.Silkscreen
6
CONTINUOUS
10
8.4331833070866136
20
-4.4449452362204722
11
8.4298707086614169
21
-4.4493619685039372
0
LINE
8
F.Silkscreen
6
CONTINUOUS
10
8.4298707086614169
20
-4.4493619685039372
11
8.4356672440944873
21
-4.4516805905511809
0
LINE
8
F.Silkscreen
6
CONTINUOUS
10
8.4356672440944873
20
-4.4516805905511809
11
8.4361810236220478
21
-4.4519472047244095
0
LINE
8
F.Silkscreen
6
CONTINUOUS
10
8.4361810236220478
20
-4.4519472047244095
11
8.4370055905511805
21
-4.4527518897637792
0
LINE
8
F.Silkscreen
6
CONTINUOUS
10
8.4370055905511805
20
-4.4527518897637792
11
8.4374594094488184
21
-4.4538108267716536
0
LINE
8
F.Silkscreen
6
CONTINUOUS
10
8.4374594094488184
20
-4.4538108267716536
11
8.4374734645669296
21
-4.4549628740157479
0
LINE
8
F.Silkscreen
6
CONTINUOUS
10
8.4374734645669296
20
-4.4549628740157479
11
8.437045551181102
21
-4.4560325984251969
0
LINE
8
F.Silkscreen
6
CONTINUOUS
10
8.437045551181102
20
-4.4560325984251969
11
8.4362409055118111
21
-4.4568571259842518
0
LINE
8
F.Silkscreen
6
CONTINUOUS
10
8.4362409055118111
20
-4.4568571259842518
11
8.4351819685039366
21
-4.4573109448818897
0
LINE
8
F.Silkscreen
6
CONTINUOUS
10
8.4351819685039366
20
-4.4573109448818897
11
8.4340299212598424
21
-4.457325
0
LINE
8
F.Silkscreen
6
CONTINUOUS
10
8.4340299212598424
20
-4.457325
11
8.4334740157480308
21
-4.4571637401574806
0
LINE
8
F.Silkscreen
6
CONTINUOUS
10
8.4334740157480308
20
-4.4571637401574806
11
8.4281495669291342
21
-4.4550339370078742
0
LINE
8
F.Silkscreen
6
CONTINUOUS
10
8.4281495669291342
20
-4.4550339370078742
11
8.4281495669291342
21
-4.460046456692913
0
LINE
8
F.Silkscreen
6
CONTINUOUS
10
8.4281495669291342
20
-4.460046456692913
11
8.4280928346456694
21
-4.4606225196850389
0
LINE
8
F.Silkscreen
6
CONTINUOUS
10
8.4280928346456694
20
-4.4606225196850389
11
8.4276519291338587
21
-4.4616869291338581
0
LINE
8
F.Silkscreen
6
CONTINUOUS
10
8.4276519291338587
20
-4.4616869291338581
11
8.4268372834645664
21
-4.4625015748031496
0
LINE
8
F.Silkscreen
6
CONTINUOUS
10
8.4268372834645664
20
-4.4625015748031496
11
8.4257728740157471
21
-4.4629424803149602
0
LINE
8
F.Silkscreen
6
CONTINUOUS
10
8.4257728740157471
20
-4.4629424803149602
11
8.4246207480314954
21
-4.4629424803149602
0
LINE
8
F.Silkscreen
6
CONTINUOUS
10
8.4246207480314954
20
-4.4629424803149602
11
8.4235563385826762
21
-4.4625015748031496
0
LINE
8
F.Silkscreen
6
CONTINUOUS
10
8.4235563385826762
20
-4.4625015748031496
11
8.4227416929133856
21
-4.4616869291338581
0
LINE
8
F.Silkscreen
6
CONTINUOUS
10
8.4227416929133856
20
-4.4616869291338581
11
8.422300787401575
21
-4.4606225196850389
0
LINE
8
F.Silkscreen
6
CONTINUOUS
10
8.422300787401575
20
-4.4606225196850389
11
8.4222440551181101
21
-4.460046456692913
0
LINE
8
F.Silkscreen
6
CONTINUOUS
10
8.4222440551181101
20
-4.460046456692913
11
8.4222440551181101
21
-4.4550339370078742
0
LINE
8
F.Silkscreen
6
CONTINUOUS
10
8.4222440551181101
20
-4.4550339370078742
11
8.4169196062992118
21
-4.4571637401574806
0
LINE
8
F.Silkscreen
6
CONTINUOUS
10
8.4169196062992118
20
-4.4571637401574806
11
8.4163637007874019
21
-4.457325
0
LINE
8
F.Silkscreen
6
CONTINUOUS
10
8.4163637007874019
20
-4.457325
11
8.4152116535433077
21
-4.4573109448818897
0
LINE
8
F.Silkscreen
6
CONTINUOUS
10
8.4152116535433077
20
-4.4573109448818897
11
8.4141527165354333
21
-4.4568571259842518
0
LINE
8
F.Silkscreen
6
CONTINUOUS
10
8.4141527165354333
20
-4.4568571259842518
11
8.4133480314960636
21
-4.4560325984251969
0
LINE
8
F.Silkscreen
6
CONTINUOUS
10
8.4133480314960636
20
-4.4560325984251969
11
8.4129201574803147
21
-4.4549628740157479
0
LINE
8
F.Silkscreen
6
CONTINUOUS
10
8.4129201574803147
20
-4.4549628740157479
11
8.4129342125984259
21
-4.4538108267716536
0
LINE
8
F.Silkscreen
6
CONTINUOUS
10
8.4129342125984259
20
-4.4538108267716536
11
8.4133880314960621
21
-4.4527518897637792
0
LINE
8
F.Silkscreen
6
CONTINUOUS
10
8.4133880314960621
20
-4.4527518897637792
11
8.4142125590551178
21
-4.4519472047244095
0
LINE
8
F.Silkscreen
6
CONTINUOUS
10
8.4142125590551178
20
-4.4519472047244095
11
8.4147263779527552
21
-4.4516805905511809
0
LINE
8
F.Silkscreen
6
CONTINUOUS
10
8.4147263779527552
20
-4.4516805905511809
11
8.4205228740157487
21
-4.4493619685039372
0
LINE
8
F.Silkscreen
6
CONTINUOUS
10
8.4205228740157487
20
-4.4493619685039372
11
8.417210314960629
21
-4.4449452362204722
0
LINE
8
F.Silkscreen
6
CONTINUOUS
10
8.417210314960629
20
-4.4449452362204722
11
8.4169100787401572
21
-4.4444503543307086
0
LINE
8
F.Silkscreen
6
CONTINUOUS
10
8.4169100787401572
20
-4.4444503543307086
11
8.4166241338582672
21
-4.4433342913385827
0
LINE
8
F.Silkscreen
6
CONTINUOUS
10
8.4166241338582672
20
-4.4433342913385827
11
8.416787086614173
21
-4.4421937795275586
0
LINE
8
F.Silkscreen
6
CONTINUOUS
10
8.416787086614173
20
-4.4421937795275586
11
8.4173740551181098
21
-4.4412024015748033
0
LINE
8
F.Silkscreen
6
CONTINUOUS
10
8.4173740551181098
20
-4.4412024015748033
11
8.4182957480314951
21
-4.4405111417322836
0
LINE
8
F.Silkscreen
6
CONTINUOUS
10
8.4182957480314951
20
-4.4405111417322836
11
8.4194118110236218
21
-4.4402251968503936
0
LINE
8
F.Silkscreen
6
CONTINUOUS
10
8.4194118110236218
20
-4.4402251968503936
11
8.4205523228346451
21
-4.4403881496062994
0
LINE
8
F.Silkscreen
6
CONTINUOUS
10
8.4205523228346451
20
-4.4403881496062994
11
8.4215437007874012
21
-4.4409751181102362
0
LINE
8
F.Silkscreen
6
CONTINUOUS
10
8.4215437007874012
20
-4.4409751181102362
11
8.4219347244094482
21
-4.4414019291338578
0
LINE
8
F.Silkscreen
6
CONTINUOUS
10
8.4219347244094482
20
-4.4414019291338578
11
8.4251968110236213
21
-4.4457513779527558
0
LINE
8
F.Silkscreen
6
CONTINUOUS
10
8.4251968110236213
20
-4.4457513779527558
11
8.4284588976377943
21
-4.4414019291338578
0
LINE
8
F.Silkscreen
6
CONTINUOUS
10
8.4284588976377943
20
-4.4414019291338578
11
8.4288499212598431
21
-4.4409751181102362
0
LINE
8
F.Silkscreen
6
CONTINUOUS
10
8.4288499212598431
20
-4.4409751181102362
11
8.4298412992125975
21
-4.4403881496062994
0
LINE
8
F.Silkscreen
6
CONTINUOUS
10
8.4298412992125975
20
-4.4403881496062994
11
8.4309818110236225
21
-4.4402251968503936
0
LINE
8
F.Silkscreen
6
CONTINUOUS
10
8.4309818110236225
20
-4.4402251968503936
11
8.4320978740157475
21
-4.4405111417322836
0
LINE
8
F.Silkscreen
6
CONTINUOUS
10
9.2509039763779519
20
-4.4003766535433071
11
9.2521824015748031
21
-4.4016550787401574
0
LINE
8
F.Silkscreen
6
CONTINUOUS
10
9.2521824015748031
20
-4.4016550787401574
11
9.2521824015748031
21
-4.403463031496063
0
LINE
8
F.Silkscreen
6
CONTINUOUS
10
9.2521824015748031
20
-4.403463031496063
11
9.2509039763779519
21
-4.4047414566929133
0
LINE
8
F.Silkscreen
6
CONTINUOUS
10
9.2509039763779519
20
-4.4047414566929133
11
9.25
21
-4.4049212598425198
0
LINE
8
F.Silkscreen
6
CONTINUOUS
10
9.25
20
-4.4049212598425198
11
9.1948818897637796
21
-4.4049212598425198
0
LINE
8
F.Silkscreen
6
CONTINUOUS
10
9.1948818897637796
20
-4.4049212598425198
11
9.1939779133858259
21
-4.4047414566929133
0
LINE
8
F.Silkscreen
6
CONTINUOUS
10
9.1939779133858259
20
-4.4047414566929133
11
9.1926994881889765
21
-4.403463031496063
0
LINE
8
F.Silkscreen
6
CONTINUOUS
10
9.1926994881889765
20
-4.403463031496063
11
9.1926994881889765
21
-4.4016550787401574
0
LINE
8
F.Silkscreen
6
CONTINUOUS
10
9.1926994881889765
20
-4.4016550787401574
11
9.1939779133858259
21
-4.4003766535433071
0
LINE
8
F.Silkscreen
6
CONTINUOUS
10
9.1939779133858259
20
-4.4003766535433071
11
9.1948818897637796
21
-4.4001968503937006
0
LINE
8
F.Silkscreen
6
CONTINUOUS
10
9.1948818897637796
20
-4.4001968503937006
11
9.25
21
-4.4001968503937006
0
LINE
8
F.Silkscreen
6
CONTINUOUS
10
9.25
20
-4.4001968503937006
11
9.2509039763779519
21
-4.4003766535433071
0
LINE
8
F.Silkscreen
6
CONTINUOUS
10
9.4343685433070856
20
-3.9163215354330707
11
9.4356469685039368
21
-3.917599960629921
0
LINE
8
F.Silkscreen
6
CONTINUOUS
10
9.4356469685039368
20
-3.917599960629921
11
9.4358267716535433
21
-3.9185039370078738
0
LINE
8
F.Silkscreen
6
CONTINUOUS
10
9.4358267716535433
20
-3.9185039370078738
11
9.4358267716535433
21
-4.3838582677165352
0
LINE
8
F.Silkscreen
6
CONTINUOUS
10
9.4358267716535433
20
-4.3838582677165352
11
9.4356469685039368
21
-4.384762244094488
0
LINE
8
F.Silkscreen
6
CONTINUOUS
10
9.4356469685039368
20
-4.384762244094488
11
9.4343685433070856
21
-4.3860406692913383
0
LINE
8
F.Silkscreen
6
CONTINUOUS
10
9.4343685433070856
20
-4.3860406692913383
11
9.4334645669291337
21
-4.3862204724409448
0
LINE
8
F.Silkscreen
6
CONTINUOUS
10
9.4334645669291337
20
-4.3862204724409448
11
9.2740157480314966
21
-4.3862204724409448
0
LINE
8
F.Silkscreen
6
CONTINUOUS
10
9.2740157480314966
20
-4.3862204724409448
11
9.2731117716535429
21
-4.3860406692913383
0
LINE
8
F.Silkscreen
6
CONTINUOUS
10
9.2731117716535429
20
-4.3860406692913383
11
9.2718333464566935
21
-4.384762244094488
0
LINE
8
F.Silkscreen
6
CONTINUOUS
10
9.2718333464566935
20
-4.384762244094488
11
9.2718333464566935
21
-4.3829542913385824
0
LINE
8
F.Silkscreen
6
CONTINUOUS
10
9.2718333464566935
20
-4.3829542913385824
11
9.2731117716535429
21
-4.3816758661417321
0
LINE
8
F.Silkscreen
6
CONTINUOUS
10
9.2731117716535429
20
-4.3816758661417321
11
9.2740157480314966
21
-4.3814960629921256
0
LINE
8
F.Silkscreen
6
CONTINUOUS
10
9.2740157480314966
20
-4.3814960629921256
11
9.4311023622047241
21
-4.3814960629921256
0
LINE
8
F.Silkscreen
6
CONTINUOUS
10
9.4311023622047241
20
-4.3814960629921256
11
9.4311023622047241
21
-3.9208661417322834
0
LINE
8
F.Silkscreen
6
CONTINUOUS
10
9.4311023622047241
20
-3.9208661417322834
11
7.4980314960629917
21
-3.9208661417322834
0
LINE
8
F.Silkscreen
6
CONTINUOUS
10
7.4980314960629917
20
-3.9208661417322834
11
7.4980314960629917
21
-4.3814960629921256
0
LINE
8
F.Silkscreen
6
CONTINUOUS
10
7.4980314960629917
20
-4.3814960629921256
11
7.65511811023622
21
-4.3814960629921256
0
LINE
8
F.Silkscreen
6
CONTINUOUS
10
7.65511811023622
20
-4.3814960629921256
11
7.6560220866141728
21
-4.3816758661417321
0
LINE
8
F.Silkscreen
6
CONTINUOUS
10
7.6560220866141728
20
-4.3816758661417321
11
7.6573005118110231
21
-4.3829542913385824
0
LINE
8
F.Silkscreen
6
CONTINUOUS
10
7.6573005118110231
20
-4.3829542913385824
11
7.6573005118110231
21
-4.384762244094488
0
LINE
8
F.Silkscreen
6
CONTINUOUS
10
7.6573005118110231
20
-4.384762244094488
11
7.6560220866141728
21
-4.3860406692913383
0
LINE
8
F.Silkscreen
6
CONTINUOUS
10
7.6560220866141728
20
-4.3860406692913383
11
7.65511811023622
21
-4.3862204724409448
0
LINE
8
F.Silkscreen
6
CONTINUOUS
10
7.65511811023622
20
-4.3862204724409448
11
7.4956692913385821
21
-4.3862204724409448
0
LINE
8
F.Silkscreen
6
CONTINUOUS
10
7.4956692913385821
20
-4.3862204724409448
11
7.4947653149606301
21
-4.3860406692913383
0
LINE
8
F.Silkscreen
6
CONTINUOUS
10
7.4947653149606301
20
-4.3860406692913383
11
7.493486889763779
21
-4.384762244094488
0
LINE
8
F.Silkscreen
6
CONTINUOUS
10
7.493486889763779
20
-4.384762244094488
11
7.4933070866141733
21
-4.3838582677165352
0
LINE
8
F.Silkscreen
6
CONTINUOUS
10
7.4933070866141733
20
-4.3838582677165352
11
7.4933070866141733
21
-3.9185039370078738
0
LINE
8
F.Silkscreen
6
CONTINUOUS
10
7.4933070866141733
20
-3.9185039370078738
11
7.493486889763779
21
-3.917599960629921
0
LINE
8
F.Silkscreen
6
CONTINUOUS
10
7.493486889763779
20
-3.917599960629921
11
7.4947653149606301
21
-3.9163215354330707
0
LINE
8
F.Silkscreen
6
CONTINUOUS
10
7.4947653149606301
20
-3.9163215354330707
11
7.4956692913385821
21
-3.9161417322834646
0
LINE
8
F.Silkscreen
6
CONTINUOUS
10
7.4956692913385821
20
-3.9161417322834646
11
9.4334645669291337
21
-3.9161417322834646
0
LINE
8
F.Silkscreen
6
CONTINUOUS
10
9.4334645669291337
20
-3.9161417322834646
11
9.4343685433070856
21
-3.9163215354330707
  0
ENDSEC
  0
EOF
