  0
SECTION
  2
HEADER
  9
$ANGBASE
  50
0.0
  9
$ANGDIR
  70
1
  9
$MEASUREMENT
  70
0
  9
$INSUNITS
  70
1
  0
ENDSEC
  0
SECTION
  2
TABLES
  0
TABLE
  2
LTYPE
  70
4
  0
LTYPE
  5
40F
  2
CONTINUOUS
  70
0
  3
Solid line
  72
65
  73
0
  40
0.0
  0
LTYPE
  5
410
  2
DASHDOT
 70
0
  3
Dash Dot ____ _ ____ _
 72
65
 73
4
 40
2.0
 49
1.25
 49
-0.25
 49
0.25
 49
-0.25
  0
LTYPE
  5
411
  2
DASHED
 70
0
  3
Dashed __ __ __ __ __
 72
65
 73
2
 40
0.75
 49
0.5
 49
-0.25
  0
LTYPE
  5
43B
  2
DOTTED
 70
0
  3
Dotted .  .  .  .
 72
65
 73
2
 40
0.2
 49
0.0
 49
-0.2
  0
ENDTAB
  0
TABLE
  2
STYLE
  70
4
  0
STYLE
  2
KICAD
  70
0
  40
0
  41
1
  42
1
  50
0
  71
0
  3
isocp.shx
  0
STYLE
  2
KICADB
  70
0
  40
0
  41
1
  42
1
  50
0
  71
0
  3
isocp.shx
  0
STYLE
  2
KICADI
  70
0
  40
0
  41
1
  42
1
  50
15
  71
0
  3
isocp.shx
  0
STYLE
  2
KICADBI
  70
0
  40
0
  41
1
  42
1
  50
15
  71
0
  3
isocp.shx
  0
ENDTAB
  0
TABLE
  2
LAYER
  70
3
  0
LAYER
  2
F.Silkscreen
  70
0
  62
41
  420
15920545
  6
CONTINUOUS
  0
LAYER
  2
B.Silkscreen
  70
0
  62
31
  420
15250087
  6
CONTINUOUS
  0
LAYER
  2
Edge.Cuts
  70
0
  62
254
  420
13685453
  6
CONTINUOUS
  0
ENDTAB
  0
ENDSEC
  0
SECTION
  2
ENTITIES
0
LINE
8
Edge.Cuts
6
CONTINUOUS
10
9.3540885433070873
20
-2.4889822440944882
11
9.4160376771653542
21
-2.5109274409448816
0
LINE
8
Edge.Cuts
6
CONTINUOUS
10
9.4160376771653542
20
-2.5109274409448816
11
9.4774461417322833
21
-2.5343431102362204
0
LINE
8
Edge.Cuts
6
CONTINUOUS
10
9.4774461417322833
20
-2.5343431102362204
11
9.538278937007874
21
-2.5592159448818896
0
LINE
8
Edge.Cuts
6
CONTINUOUS
10
9.538278937007874
20
-2.5592159448818896
11
9.5985015748031497
21
-2.5855317716535433
0
LINE
8
Edge.Cuts
6
CONTINUOUS
10
9.5985015748031497
20
-2.5855317716535433
11
9.658079842519685
21
-2.6132756692913386
0
LINE
8
Edge.Cuts
6
CONTINUOUS
10
9.658079842519685
20
-2.6132756692913386
11
9.7169798031496057
21
-2.6424318897637793
0
LINE
8
Edge.Cuts
6
CONTINUOUS
10
9.7169798031496057
20
-2.6424318897637793
11
9.7751680314960634
21
-2.6729838188976376
0
LINE
8
Edge.Cuts
6
CONTINUOUS
10
9.7751680314960634
20
-2.6729838188976376
11
9.8326114566929128
21
-2.7049140944881889
0
LINE
8
Edge.Cuts
6
CONTINUOUS
10
9.8326114566929128
20
-2.7049140944881889
11
9.8892774015748035
21
-2.7382046062992127
0
LINE
8
Edge.Cuts
6
CONTINUOUS
10
9.8892774015748035
20
-2.7382046062992127
11
9.9451337007874017
21
-2.7728364173228344
0
LINE
8
Edge.Cuts
6
CONTINUOUS
10
9.9451337007874017
20
-2.7728364173228344
11
10.0001486220472433
21
-2.8087898425196851
0
LINE
8
Edge.Cuts
6
CONTINUOUS
10
10.0001486220472433
20
-2.8087898425196851
11
10.0542908661417325
21
-2.8460444881889764
0
LINE
8
Edge.Cuts
6
CONTINUOUS
10
10.0542908661417325
20
-2.8460444881889764
11
10.1075296850393705
21
-2.8845790944881888
0
LINE
8
Edge.Cuts
6
CONTINUOUS
10
10.1075296850393705
20
-2.8845790944881888
11
10.1598348425196843
21
-2.9243718503937006
0
LINE
8
Edge.Cuts
6
CONTINUOUS
10
10.1598348425196843
20
-2.9243718503937006
11
10.2111765354330704
21
-2.9654001181102361
0
LINE
8
Edge.Cuts
6
CONTINUOUS
10
10.2111765354330704
20
-2.9654001181102361
11
10.2615256692913377
21
-3.0076405511811024
0
LINE
8
Edge.Cuts
6
CONTINUOUS
10
10.2615256692913377
20
-3.0076405511811024
11
10.3108536220472438
21
-3.0510691732283464
0
LINE
8
Edge.Cuts
6
CONTINUOUS
10
10.3108536220472438
20
-3.0510691732283464
11
10.359132322834645
21
-3.0956612992125985
0
LINE
8
Edge.Cuts
6
CONTINUOUS
10
10.359132322834645
20
-3.0956612992125985
11
10.4063343307086615
21
-3.1413916141732283
0
LINE
8
Edge.Cuts
6
CONTINUOUS
10
10.4063343307086615
20
-3.1413916141732283
11
10.4524328740157486
21
-3.1882340551181101
0
LINE
8
Edge.Cuts
6
CONTINUOUS
10
10.4524328740157486
20
-3.1882340551181101
11
10.4974016929133853
21
-3.2361620472440946
0
LINE
8
Edge.Cuts
6
CONTINUOUS
10
10.4974016929133853
20
-3.2361620472440946
11
10.5412152755905506
21
-3.2851483858267714
0
LINE
8
Edge.Cuts
6
CONTINUOUS
10
10.5412152755905506
20
-3.2851483858267714
11
10.5838487007874011
21
-3.3351651968503937
0
LINE
8
Edge.Cuts
6
CONTINUOUS
10
10.5838487007874011
20
-3.3351651968503937
11
10.6252777559055112
21
-3.3861840157480314
0
LINE
8
Edge.Cuts
6
CONTINUOUS
10
10.6252777559055112
20
-3.3861840157480314
11
10.6654788976377954
21
-3.4381759448818898
0
LINE
8
Edge.Cuts
6
CONTINUOUS
10
10.6654788976377954
20
-3.4381759448818898
11
10.7044292913385828
21
-3.4911113779527558
0
LINE
8
Edge.Cuts
6
CONTINUOUS
10
10.7044292913385828
20
-3.4911113779527558
11
10.7421067716535426
21
-3.5449601968503934
0
LINE
8
Edge.Cuts
6
CONTINUOUS
10
10.7421067716535426
20
-3.5449601968503934
11
10.7784899212598422
21
-3.5996918897637795
0
LINE
8
Edge.Cuts
6
CONTINUOUS
10
10.7784899212598422
20
-3.5996918897637795
11
10.8135580708661418
21
-3.6552752755905509
0
LINE
8
Edge.Cuts
6
CONTINUOUS
10
10.8135580708661418
20
-3.6552752755905509
11
10.8284158267716535
21
-3.6801181102362204
0
LINE
8
Edge.Cuts
6
CONTINUOUS
10
10.8284158267716535
20
-3.6801181102362204
11
11.6929133858267722
21
-3.6801181102362204
0
LINE
8
Edge.Cuts
6
CONTINUOUS
10
11.6929133858267722
20
-3.6801181102362204
11
11.693290039370078
21
-3.6801930314960627
0
LINE
8
Edge.Cuts
6
CONTINUOUS
10
11.693290039370078
20
-3.6801930314960627
11
11.6938227165354327
21
-3.6807257086614174
0
LINE
8
Edge.Cuts
6
CONTINUOUS
10
11.6938227165354327
20
-3.6807257086614174
11
11.6938976377952759
21
-3.6811023622047245
0
LINE
8
Edge.Cuts
6
CONTINUOUS
10
11.6938976377952759
20
-3.6811023622047245
11
11.6938976377952759
21
-6.515748031496063
0
LINE
8
Edge.Cuts
6
CONTINUOUS
10
11.6938976377952759
20
-6.515748031496063
11
11.6938227165354327
21
-6.5161246850393697
0
LINE
8
Edge.Cuts
6
CONTINUOUS
10
11.6938227165354327
20
-6.5161246850393697
11
11.693290039370078
21
-6.5166573622047244
0
LINE
8
Edge.Cuts
6
CONTINUOUS
10
11.693290039370078
20
-6.5166573622047244
11
11.6929133858267722
21
-6.5167322834645667
0
LINE
8
Edge.Cuts
6
CONTINUOUS
10
11.6929133858267722
20
-6.5167322834645667
11
10.8284832283464567
21
-6.5167322834645667
0
LINE
8
Edge.Cuts
6
CONTINUOUS
10
10.8284832283464567
20
-6.5167322834645667
11
10.8210604330708655
21
-6.5292919291338585
0
LINE
8
Edge.Cuts
6
CONTINUOUS
10
10.8210604330708655
20
-6.5292919291338585
11
10.7862829133858273
21
-6.5850576377952752
0
LINE
8
Edge.Cuts
6
CONTINUOUS
10
10.7862829133858273
20
-6.5850576377952752
11
10.7501859842519689
21
-6.6399785039370078
0
LINE
8
Edge.Cuts
6
CONTINUOUS
10
10.7501859842519689
20
-6.6399785039370078
11
10.712790157480315
21
-6.6940233464566932
0
LINE
8
Edge.Cuts
6
CONTINUOUS
10
10.712790157480315
20
-6.6940233464566932
11
10.6741166929133851
21
-6.7471613779527555
0
LINE
8
Edge.Cuts
6
CONTINUOUS
10
10.6741166929133851
20
-6.7471613779527555
11
10.6341875590551176
21
-6.7993624409448818
0
LINE
8
Edge.Cuts
6
CONTINUOUS
10
10.6341875590551176
20
-6.7993624409448818
11
10.5930253937007866
21
-6.8505968897637795
0
LINE
8
Edge.Cuts
6
CONTINUOUS
10
10.5930253937007866
20
-6.8505968897637795
11
10.5506536614173232
21
-6.9008355905511811
0
LINE
8
Edge.Cuts
6
CONTINUOUS
10
10.5506536614173232
20
-6.9008355905511811
11
10.5070964173228347
21
-6.9500500000000001
0
LINE
8
Edge.Cuts
6
CONTINUOUS
10
10.5070964173228347
20
-6.9500500000000001
11
10.4623784251968495
21
-6.998212125984252
0
LINE
8
Edge.Cuts
6
CONTINUOUS
10
10.4623784251968495
20
-6.998212125984252
11
10.4165250787401575
21
-7.0452946062992128
0
LINE
8
Edge.Cuts
6
CONTINUOUS
10
10.4165250787401575
20
-7.0452946062992128
11
10.3695624409448808
21
-7.0912707086614173
0
LINE
8
Edge.Cuts
6
CONTINUOUS
10
10.3695624409448808
20
-7.0912707086614173
11
10.3215172047244099
21
-7.1361142913385827
0
LINE
8
Edge.Cuts
6
CONTINUOUS
10
10.3215172047244099
20
-7.1361142913385827
11
10.2724166929133851
21
-7.1797998425196852
0
LINE
8
Edge.Cuts
6
CONTINUOUS
10
10.2724166929133851
20
-7.1797998425196852
11
10.2222887795275597
21
-7.2223025590551178
0
LINE
8
Edge.Cuts
6
CONTINUOUS
10
10.2222887795275597
20
-7.2223025590551178
11
10.1711619685039363
21
-7.2635983070866139
0
LINE
8
Edge.Cuts
6
CONTINUOUS
10
10.1711619685039363
20
-7.2635983070866139
11
10.1190652755905504
21
-7.3036635826771654
0
LINE
8
Edge.Cuts
6
CONTINUOUS
10
10.1190652755905504
20
-7.3036635826771654
11
10.0660283858267707
21
-7.3424756299212595
0
LINE
8
Edge.Cuts
6
CONTINUOUS
10
10.0660283858267707
20
-7.3424756299212595
11
10.0120813385826768
21
-7.3800124015748025
0
LINE
8
Edge.Cuts
6
CONTINUOUS
10
10.0120813385826768
20
-7.3800124015748025
11
9.9572548818897637
21
-7.4162525984251966
0
LINE
8
Edge.Cuts
6
CONTINUOUS
10
9.9572548818897637
20
-7.4162525984251966
11
9.9015801574803142
21
-7.4511755511811018
0
LINE
8
Edge.Cuts
6
CONTINUOUS
10
9.9015801574803142
20
-7.4511755511811018
11
9.8450887401574807
21
-7.4847614173228347
0
LINE
8
Edge.Cuts
6
CONTINUOUS
10
9.8450887401574807
20
-7.4847614173228347
11
9.7878128346456688
21
-7.5169911811023624
0
LINE
8
Edge.Cuts
6
CONTINUOUS
10
9.7878128346456688
20
-7.5169911811023624
11
9.7297848818897634
21
-7.5478464960629923
0
LINE
8
Edge.Cuts
6
CONTINUOUS
10
9.7297848818897634
20
-7.5478464960629923
11
9.6710379527559045
21
-7.577309803149606
0
LINE
8
Edge.Cuts
6
CONTINUOUS
10
9.6710379527559045
20
-7.577309803149606
11
9.6116053543307078
21
-7.6053643700787399
0
LINE
8
Edge.Cuts
6
CONTINUOUS
10
9.6116053543307078
20
-7.6053643700787399
11
9.5515209448818901
21
-7.6319942519685036
0
LINE
8
Edge.Cuts
6
CONTINUOUS
10
9.5515209448818901
20
-7.6319942519685036
11
9.490818779527558
21
-7.6571843307086613
0
LINE
8
Edge.Cuts
6
CONTINUOUS
10
9.490818779527558
20
-7.6571843307086613
11
9.4295334251968494
21
-7.6809202755905508
0
LINE
8
Edge.Cuts
6
CONTINUOUS
10
9.4295334251968494
20
-7.6809202755905508
11
9.3676996850393692
21
-7.7031885826771651
0
LINE
8
Edge.Cuts
6
CONTINUOUS
10
9.3676996850393692
20
-7.7031885826771651
11
9.3053527165354328
21
-7.723976653543307
0
LINE
8
Edge.Cuts
6
CONTINUOUS
10
9.3053527165354328
20
-7.723976653543307
11
9.2425279133858265
21
-7.7432726377952754
0
LINE
8
Edge.Cuts
6
CONTINUOUS
10
9.2425279133858265
20
-7.7432726377952754
11
9.1792609842519681
21
-7.761065551181102
0
LINE
8
Edge.Cuts
6
CONTINUOUS
10
9.1792609842519681
20
-7.761065551181102
11
9.1155879133858271
21
-7.7773452755905508
0
LINE
8
Edge.Cuts
6
CONTINUOUS
10
9.1155879133858271
20
-7.7773452755905508
11
9.0515448818897628
21
-7.7921025984251964
0
LINE
8
Edge.Cuts
6
CONTINUOUS
10
9.0515448818897628
20
-7.7921025984251964
11
8.9871682677165357
21
-7.8053291338582671
0
LINE
8
Edge.Cuts
6
CONTINUOUS
10
8.9871682677165357
20
-7.8053291338582671
11
8.9224946456692908
21
-7.8170173622047239
0
LINE
8
Edge.Cuts
6
CONTINUOUS
10
8.9224946456692908
20
-7.8170173622047239
11
8.8575608267716532
21
-7.8271606299212593
0
LINE
8
Edge.Cuts
6
CONTINUOUS
10
8.8575608267716532
20
-7.8271606299212593
11
8.7924036220472441
21
-7.8357531496062993
0
LINE
8
Edge.Cuts
6
CONTINUOUS
10
8.7924036220472441
20
-7.8357531496062993
11
8.7270601574803148
21
-7.8427900393700787
0
LINE
8
Edge.Cuts
6
CONTINUOUS
10
8.7270601574803148
20
-7.8427900393700787
11
8.6615674803149609
21
-7.8482673622047239
0
LINE
8
Edge.Cuts
6
CONTINUOUS
10
8.6615674803149609
20
-7.8482673622047239
11
8.595962874015747
21
-7.8521819685039365
0
LINE
8
Edge.Cuts
6
CONTINUOUS
10
8.595962874015747
20
-7.8521819685039365
11
8.5302835826771659
21
-7.8545316141732284
0
LINE
8
Edge.Cuts
6
CONTINUOUS
10
8.5302835826771659
20
-7.8545316141732284
11
8.4645669291338574
21
-7.8553149606299213
0
LINE
8
Edge.Cuts
6
CONTINUOUS
10
8.4645669291338574
20
-7.8553149606299213
11
8.3988502755905508
21
-7.8545316141732284
0
LINE
8
Edge.Cuts
6
CONTINUOUS
10
8.3988502755905508
20
-7.8545316141732284
11
8.3331709842519679
21
-7.8521819685039365
0
LINE
8
Edge.Cuts
6
CONTINUOUS
10
8.3331709842519679
20
-7.8521819685039365
11
8.2675663779527557
21
-7.8482673622047239
0
LINE
8
Edge.Cuts
6
CONTINUOUS
10
8.2675663779527557
20
-7.8482673622047239
11
8.2020737007874018
21
-7.8427900393700787
0
LINE
8
Edge.Cuts
6
CONTINUOUS
10
8.2020737007874018
20
-7.8427900393700787
11
8.1367302362204725
21
-7.8357531496062993
0
LINE
8
Edge.Cuts
6
CONTINUOUS
10
8.1367302362204725
20
-7.8357531496062993
11
8.0715730314960634
21
-7.8271606299212593
0
LINE
8
Edge.Cuts
6
CONTINUOUS
10
8.0715730314960634
20
-7.8271606299212593
11
8.0066392125984258
21
-7.8170173622047239
0
LINE
8
Edge.Cuts
6
CONTINUOUS
10
8.0066392125984258
20
-7.8170173622047239
11
7.941965590551181
21
-7.8053291338582671
0
LINE
8
Edge.Cuts
6
CONTINUOUS
10
7.941965590551181
20
-7.8053291338582671
11
7.877588976377953
21
-7.7921025984251964
0
LINE
8
Edge.Cuts
6
CONTINUOUS
10
7.877588976377953
20
-7.7921025984251964
11
7.8135459448818896
21
-7.7773452755905508
0
LINE
8
Edge.Cuts
6
CONTINUOUS
10
7.8135459448818896
20
-7.7773452755905508
11
7.7498728740157476
21
-7.761065551181102
0
LINE
8
Edge.Cuts
6
CONTINUOUS
10
7.7498728740157476
20
-7.761065551181102
11
7.6866059448818893
21
-7.7432726377952754
0
LINE
8
Edge.Cuts
6
CONTINUOUS
10
7.6866059448818893
20
-7.7432726377952754
11
7.6237811417322829
21
-7.723976653543307
0
LINE
8
Edge.Cuts
6
CONTINUOUS
10
7.6237811417322829
20
-7.723976653543307
11
7.5614341732283465
21
-7.7031885826771651
0
LINE
8
Edge.Cuts
6
CONTINUOUS
10
7.5614341732283465
20
-7.7031885826771651
11
7.4996004330708663
21
-7.6809202755905508
0
LINE
8
Edge.Cuts
6
CONTINUOUS
10
7.4996004330708663
20
-7.6809202755905508
11
7.4383150787401577
21
-7.6571843307086613
0
LINE
8
Edge.Cuts
6
CONTINUOUS
10
7.4383150787401577
20
-7.6571843307086613
11
7.3776129133858266
21
-7.6319942519685036
0
LINE
8
Edge.Cuts
6
CONTINUOUS
10
7.3776129133858266
20
-7.6319942519685036
11
7.3175285039370079
21
-7.6053643700787399
0
LINE
8
Edge.Cuts
6
CONTINUOUS
10
7.3175285039370079
20
-7.6053643700787399
11
7.2580959055118113
21
-7.577309803149606
0
LINE
8
Edge.Cuts
6
CONTINUOUS
10
7.2580959055118113
20
-7.577309803149606
11
7.1993489763779523
21
-7.5478464960629923
0
LINE
8
Edge.Cuts
6
CONTINUOUS
10
7.1993489763779523
20
-7.5478464960629923
11
7.141321023622047
21
-7.5169911811023624
0
LINE
8
Edge.Cuts
6
CONTINUOUS
10
7.141321023622047
20
-7.5169911811023624
11
7.084045118110236
21
-7.4847614173228347
0
LINE
8
Edge.Cuts
6
CONTINUOUS
10
7.084045118110236
20
-7.4847614173228347
11
7.0275537007874016
21
-7.4511755511811018
0
LINE
8
Edge.Cuts
6
CONTINUOUS
10
7.0275537007874016
20
-7.4511755511811018
11
6.971878976377953
21
-7.4162525984251966
0
LINE
8
Edge.Cuts
6
CONTINUOUS
10
6.971878976377953
20
-7.4162525984251966
11
6.917052519685039
21
-7.3800124015748025
0
LINE
8
Edge.Cuts
6
CONTINUOUS
10
6.917052519685039
20
-7.3800124015748025
11
6.863105472440945
21
-7.3424756299212595
0
LINE
8
Edge.Cuts
6
CONTINUOUS
10
6.863105472440945
20
-7.3424756299212595
11
6.8100685826771654
21
-7.3036635826771654
0
LINE
8
Edge.Cuts
6
CONTINUOUS
10
6.8100685826771654
20
-7.3036635826771654
11
6.7579718897637795
21
-7.2635983070866139
0
LINE
8
Edge.Cuts
6
CONTINUOUS
10
6.7579718897637795
20
-7.2635983070866139
11
6.706845078740157
21
-7.2223025590551178
0
LINE
8
Edge.Cuts
6
CONTINUOUS
10
6.706845078740157
20
-7.2223025590551178
11
6.6567171653543307
21
-7.1797998425196852
0
LINE
8
Edge.Cuts
6
CONTINUOUS
10
6.6567171653543307
20
-7.1797998425196852
11
6.6076166535433067
21
-7.1361142913385827
0
LINE
8
Edge.Cuts
6
CONTINUOUS
10
6.6076166535433067
20
-7.1361142913385827
11
6.5595714173228341
21
-7.0912707086614173
0
LINE
8
Edge.Cuts
6
CONTINUOUS
10
6.5595714173228341
20
-7.0912707086614173
11
6.5126087795275591
21
-7.0452946062992128
0
LINE
8
Edge.Cuts
6
CONTINUOUS
10
6.5126087795275591
20
-7.0452946062992128
11
6.4667554330708663
21
-6.998212125984252
0
LINE
8
Edge.Cuts
6
CONTINUOUS
10
6.4667554330708663
20
-6.998212125984252
11
6.4220374409448819
21
-6.9500500000000001
0
LINE
8
Edge.Cuts
6
CONTINUOUS
10
6.4220374409448819
20
-6.9500500000000001
11
6.3784801968503935
21
-6.9008355905511811
0
LINE
8
Edge.Cuts
6
CONTINUOUS
10
6.3784801968503935
20
-6.9008355905511811
11
6.3361084645669292
21
-6.8505968897637795
0
LINE
8
Edge.Cuts
6
CONTINUOUS
10
6.3361084645669292
20
-6.8505968897637795
11
6.2949462992125982
21
-6.7993624409448818
0
LINE
8
Edge.Cuts
6
CONTINUOUS
10
6.2949462992125982
20
-6.7993624409448818
11
6.2550171653543307
21
-6.7471613779527555
0
LINE
8
Edge.Cuts
6
CONTINUOUS
10
6.2550171653543307
20
-6.7471613779527555
11
6.2163437007874016
21
-6.6940233464566932
0
LINE
8
Edge.Cuts
6
CONTINUOUS
10
6.2163437007874016
20
-6.6940233464566932
11
6.1789478740157477
21
-6.6399785039370078
0
LINE
8
Edge.Cuts
6
CONTINUOUS
10
6.1789478740157477
20
-6.6399785039370078
11
6.1428509448818893
21
-6.5850576377952752
0
LINE
8
Edge.Cuts
6
CONTINUOUS
10
6.1428509448818893
20
-6.5850576377952752
11
6.1080734251968503
21
-6.5292919291338585
0
LINE
8
Edge.Cuts
6
CONTINUOUS
10
6.1080734251968503
20
-6.5292919291338585
11
6.1006506299212599
21
-6.5167322834645667
0
LINE
8
Edge.Cuts
6
CONTINUOUS
10
6.1006506299212599
20
-6.5167322834645667
11
5.3149606299212593
21
-6.5167322834645667
0
LINE
8
Edge.Cuts
6
CONTINUOUS
10
5.3149606299212593
20
-6.5167322834645667
11
5.3145839763779525
21
-6.5166573622047244
0
LINE
8
Edge.Cuts
6
CONTINUOUS
10
5.3145839763779525
20
-6.5166573622047244
11
5.3140512992125979
21
-6.5161246850393697
0
LINE
8
Edge.Cuts
6
CONTINUOUS
10
5.3140512992125979
20
-6.5161246850393697
11
5.3139763779527556
21
-6.515748031496063
0
LINE
8
Edge.Cuts
6
CONTINUOUS
10
5.3139763779527556
20
-6.515748031496063
11
5.3139763779527556
21
-3.6811023622047245
0
LINE
8
Edge.Cuts
6
CONTINUOUS
10
5.3139763779527556
20
-3.6811023622047245
11
5.3140512992125979
21
-3.6807257086614174
0
LINE
8
Edge.Cuts
6
CONTINUOUS
10
5.3140512992125979
20
-3.6807257086614174
11
5.3145839763779525
21
-3.6801930314960627
0
LINE
8
Edge.Cuts
6
CONTINUOUS
10
5.3145839763779525
20
-3.6801930314960627
11
5.3149606299212593
21
-3.6801181102362204
0
LINE
8
Edge.Cuts
6
CONTINUOUS
10
5.3149606299212593
20
-3.6801181102362204
11
6.1007180314960632
21
-3.6801181102362204
0
LINE
8
Edge.Cuts
6
CONTINUOUS
10
6.1007180314960632
20
-3.6801181102362204
11
6.1155757874015748
21
-3.6552752755905509
0
LINE
8
Edge.Cuts
6
CONTINUOUS
10
6.1155757874015748
20
-3.6552752755905509
11
6.1506439370078736
21
-3.5996918897637795
0
LINE
8
Edge.Cuts
6
CONTINUOUS
10
6.1506439370078736
20
-3.5996918897637795
11
6.1870270866141732
21
-3.5449601968503934
0
LINE
8
Edge.Cuts
6
CONTINUOUS
10
6.1870270866141732
20
-3.5449601968503934
11
6.2247045669291339
21
-3.4911113779527558
0
LINE
8
Edge.Cuts
6
CONTINUOUS
10
6.2247045669291339
20
-3.4911113779527558
11
6.2636549606299212
21
-3.4381759448818898
0
LINE
8
Edge.Cuts
6
CONTINUOUS
10
6.2636549606299212
20
-3.4381759448818898
11
6.3038561023622046
21
-3.3861840157480314
0
LINE
8
Edge.Cuts
6
CONTINUOUS
10
6.3038561023622046
20
-3.3861840157480314
11
6.3452851574803146
21
-3.3351651968503937
0
LINE
8
Edge.Cuts
6
CONTINUOUS
10
6.3452851574803146
20
-3.3351651968503937
11
6.3879185826771652
21
-3.2851483858267714
0
LINE
8
Edge.Cuts
6
CONTINUOUS
10
6.3879185826771652
20
-3.2851483858267714
11
6.4317321653543305
21
-3.2361620472440946
0
LINE
8
Edge.Cuts
6
CONTINUOUS
10
6.4317321653543305
20
-3.2361620472440946
11
6.4767009842519681
21
-3.1882340551181101
0
LINE
8
Edge.Cuts
6
CONTINUOUS
10
6.4767009842519681
20
-3.1882340551181101
11
6.5227995275590551
21
-3.1413916141732283
0
LINE
8
Edge.Cuts
6
CONTINUOUS
10
6.5227995275590551
20
-3.1413916141732283
11
6.5700015354330707
21
-3.0956612992125985
0
LINE
8
Edge.Cuts
6
CONTINUOUS
10
6.5700015354330707
20
-3.0956612992125985
11
6.618280236220472
21
-3.0510691732283464
0
LINE
8
Edge.Cuts
6
CONTINUOUS
10
6.618280236220472
20
-3.0510691732283464
11
6.6676081889763781
21
-3.0076405511811024
0
LINE
8
Edge.Cuts
6
CONTINUOUS
10
6.6676081889763781
20
-3.0076405511811024
11
6.7179573228346454
21
-2.9654001181102361
0
LINE
8
Edge.Cuts
6
CONTINUOUS
10
6.7179573228346454
20
-2.9654001181102361
11
6.7692990157480315
21
-2.9243718503937006
0
LINE
8
Edge.Cuts
6
CONTINUOUS
10
6.7692990157480315
20
-2.9243718503937006
11
6.8216041732283461
21
-2.8845790944881888
0
LINE
8
Edge.Cuts
6
CONTINUOUS
10
6.8216041732283461
20
-2.8845790944881888
11
6.8748429921259842
21
-2.8460444881889764
0
LINE
8
Edge.Cuts
6
CONTINUOUS
10
6.8748429921259842
20
-2.8460444881889764
11
6.9289852362204725
21
-2.8087898425196851
0
LINE
8
Edge.Cuts
6
CONTINUOUS
10
6.9289852362204725
20
-2.8087898425196851
11
6.984000157480315
21
-2.7728364173228344
0
LINE
8
Edge.Cuts
6
CONTINUOUS
10
6.984000157480315
20
-2.7728364173228344
11
7.0398564566929132
21
-2.7382046062992127
0
LINE
8
Edge.Cuts
6
CONTINUOUS
10
7.0398564566929132
20
-2.7382046062992127
11
7.096522401574803
21
-2.7049140944881889
0
LINE
8
Edge.Cuts
6
CONTINUOUS
10
7.096522401574803
20
-2.7049140944881889
11
7.1539658267716533
21
-2.6729838188976376
0
LINE
8
Edge.Cuts
6
CONTINUOUS
10
7.1539658267716533
20
-2.6729838188976376
11
7.21215405511811
21
-2.6424318897637793
0
LINE
8
Edge.Cuts
6
CONTINUOUS
10
7.21215405511811
20
-2.6424318897637793
11
7.2710540157480317
21
-2.6132756692913386
0
LINE
8
Edge.Cuts
6
CONTINUOUS
10
7.2710540157480317
20
-2.6132756692913386
11
7.330632283464567
21
-2.5855317716535433
0
LINE
8
Edge.Cuts
6
CONTINUOUS
10
7.330632283464567
20
-2.5855317716535433
11
7.3908549212598427
21
-2.5592159448818896
0
LINE
8
Edge.Cuts
6
CONTINUOUS
10
7.3908549212598427
20
-2.5592159448818896
11
7.4516877165354325
21
-2.5343431102362204
0
LINE
8
Edge.Cuts
6
CONTINUOUS
10
7.4516877165354325
20
-2.5343431102362204
11
7.5130961811023624
21
-2.5109274409448816
0
LINE
8
Edge.Cuts
6
CONTINUOUS
10
7.5130961811023624
20
-2.5109274409448816
11
7.5750453149606294
21
-2.4889822440944882
0
LINE
8
Edge.Cuts
6
CONTINUOUS
10
7.5750453149606294
20
-2.4889822440944882
11
7.6375000000000002
21
-2.4685199999999998
0
LINE
8
Edge.Cuts
6
CONTINUOUS
10
7.6375000000000002
20
-2.4685199999999998
11
7.6381082677165351
21
-2.4685257480314959
0
LINE
8
Edge.Cuts
6
CONTINUOUS
10
7.6381082677165351
20
-2.4685257480314959
11
7.6381403937007875
21
-2.4685495669291337
0
LINE
8
Edge.Cuts
6
CONTINUOUS
10
7.6381403937007875
20
-2.4685495669291337
11
7.6381719291338577
21
-2.4685495669291337
0
LINE
8
Edge.Cuts
6
CONTINUOUS
10
7.6381719291338577
20
-2.4685495669291337
11
7.6382620866141728
21
-2.4686397244094489
0
LINE
8
Edge.Cuts
6
CONTINUOUS
10
7.6382620866141728
20
-2.4686397244094489
11
7.638597007874016
21
-2.4688879133858266
0
LINE
8
Edge.Cuts
6
CONTINUOUS
10
7.638597007874016
20
-2.4688879133858266
11
7.6386367716535428
21
-2.4690144094488189
0
LINE
8
Edge.Cuts
6
CONTINUOUS
10
7.6386367716535428
20
-2.4690144094488189
11
7.6387046062992123
21
-2.469082244094488
0
LINE
8
Edge.Cuts
6
CONTINUOUS
10
7.6387046062992123
20
-2.469082244094488
11
7.6387795275590546
21
-2.4694588976377951
0
LINE
8
Edge.Cuts
6
CONTINUOUS
10
7.6387795275590546
20
-2.4694588976377951
11
7.6387795275590546
21
-3.9163385826771653
0
LINE
8
Edge.Cuts
6
CONTINUOUS
10
7.6387795275590546
20
-3.9163385826771653
11
9.2903543307086611
21
-3.9163385826771653
0
LINE
8
Edge.Cuts
6
CONTINUOUS
10
9.2903543307086611
20
-3.9163385826771653
11
9.2903543307086611
21
-2.4694588976377951
0
LINE
8
Edge.Cuts
6
CONTINUOUS
10
9.2903543307086611
20
-2.4694588976377951
11
9.2904292519685043
21
-2.469082244094488
0
LINE
8
Edge.Cuts
6
CONTINUOUS
10
9.2904292519685043
20
-2.469082244094488
11
9.2904970472440951
21
-2.4690144094488189
0
LINE
8
Edge.Cuts
6
CONTINUOUS
10
9.2904970472440951
20
-2.4690144094488189
11
9.2905368503936998
21
-2.4688879133858266
0
LINE
8
Edge.Cuts
6
CONTINUOUS
10
9.2905368503936998
20
-2.4688879133858266
11
9.2908717322834651
21
-2.4686397244094489
0
LINE
8
Edge.Cuts
6
CONTINUOUS
10
9.2908717322834651
20
-2.4686397244094489
11
9.2909619291338572
21
-2.4685495669291337
0
LINE
8
Edge.Cuts
6
CONTINUOUS
10
9.2909619291338572
20
-2.4685495669291337
11
9.2909934645669292
21
-2.4685495669291337
0
LINE
8
Edge.Cuts
6
CONTINUOUS
10
9.2909934645669292
20
-2.4685495669291337
11
9.2910255905511807
21
-2.4685257480314959
0
LINE
8
Edge.Cuts
6
CONTINUOUS
10
9.2910255905511807
20
-2.4685257480314959
11
9.2916338582677156
21
-2.4685199999999998
0
LINE
8
Edge.Cuts
6
CONTINUOUS
10
9.2916338582677156
20
-2.4685199999999998
11
9.3540885433070873
21
-2.4889822440944882
0
LINE
8
Edge.Cuts
6
CONTINUOUS
10
9.2923228346456686
20
-3.917322834645669
11
9.2922479133858271
21
-3.9176994881889762
0
LINE
8
Edge.Cuts
6
CONTINUOUS
10
9.2922479133858271
20
-3.9176994881889762
11
9.2917152362204725
21
-3.9182321653543308
0
LINE
8
Edge.Cuts
6
CONTINUOUS
10
9.2917152362204725
20
-3.9182321653543308
11
9.2913385826771648
21
-3.9183070866141732
0
LINE
8
Edge.Cuts
6
CONTINUOUS
10
9.2913385826771648
20
-3.9183070866141732
11
7.6377952755905509
21
-3.9183070866141732
0
LINE
8
Edge.Cuts
6
CONTINUOUS
10
7.6377952755905509
20
-3.9183070866141732
11
7.6374186220472442
21
-3.9182321653543308
0
LINE
8
Edge.Cuts
6
CONTINUOUS
10
7.6374186220472442
20
-3.9182321653543308
11
7.6368859448818895
21
-3.9176994881889762
0
LINE
8
Edge.Cuts
6
CONTINUOUS
10
7.6368859448818895
20
-3.9176994881889762
11
7.6368110236220472
21
-3.917322834645669
0
LINE
8
Edge.Cuts
6
CONTINUOUS
10
7.6368110236220472
20
-3.917322834645669
11
7.6368110236220472
21
-2.4708001968503934
0
LINE
8
Edge.Cuts
6
CONTINUOUS
10
7.6368110236220472
20
-2.4708001968503934
11
7.6067638582677164
21
-2.4802502755905511
0
LINE
8
Edge.Cuts
6
CONTINUOUS
10
7.6067638582677164
20
-2.4802502755905511
11
7.5445975196850394
21
-2.5014418897637793
0
LINE
8
Edge.Cuts
6
CONTINUOUS
10
7.5445975196850394
20
-2.5014418897637793
11
7.4829540157480317
21
-2.5241093307086615
0
LINE
8
Edge.Cuts
6
CONTINUOUS
10
7.4829540157480317
20
-2.5241093307086615
11
7.4218683858267713
21
-2.5482397637795273
0
LINE
8
Edge.Cuts
6
CONTINUOUS
10
7.4218683858267713
20
-2.5482397637795273
11
7.361375275590551
21
-2.5738194488188975
0
LINE
8
Edge.Cuts
6
CONTINUOUS
10
7.361375275590551
20
-2.5738194488188975
11
7.3015091338582678
21
-2.6008338582677166
0
LINE
8
Edge.Cuts
6
CONTINUOUS
10
7.3015091338582678
20
-2.6008338582677166
11
7.2423038976377949
21
-2.6292676377952757
0
LINE
8
Edge.Cuts
6
CONTINUOUS
10
7.2423038976377949
20
-2.6292676377952757
11
7.1837933070866136
21
-2.6591046062992127
0
LINE
8
Edge.Cuts
6
CONTINUOUS
10
7.1837933070866136
20
-2.6591046062992127
11
7.1260105905511812
21
-2.6903278346456694
0
LINE
8
Edge.Cuts
6
CONTINUOUS
10
7.1260105905511812
20
-2.6903278346456694
11
7.0689885433070865
21
-2.7229195669291339
0
LINE
8
Edge.Cuts
6
CONTINUOUS
10
7.0689885433070865
20
-2.7229195669291339
11
7.0127596062992126
21
-2.7568612992125985
0
LINE
8
Edge.Cuts
6
CONTINUOUS
10
7.0127596062992126
20
-2.7568612992125985
11
6.9573557086614173
21
-2.7921337401574804
0
LINE
8
Edge.Cuts
6
CONTINUOUS
10
6.9573557086614173
20
-2.7921337401574804
11
6.9028083464566929
21
-2.828716811023622
0
LINE
8
Edge.Cuts
6
CONTINUOUS
10
6.9028083464566929
20
-2.828716811023622
11
6.8491485433070869
21
-2.8665897244094487
0
LINE
8
Edge.Cuts
6
CONTINUOUS
10
6.8491485433070869
20
-2.8665897244094487
11
6.796406771653543
21
-2.9057310236220473
0
LINE
8
Edge.Cuts
6
CONTINUOUS
10
6.796406771653543
20
-2.9057310236220473
11
6.7446129921259841
21
-2.9461183858267717
0
LINE
8
Edge.Cuts
6
CONTINUOUS
10
6.7446129921259841
20
-2.9461183858267717
11
6.6937966929133861
21
-2.9877289370078741
0
LINE
8
Edge.Cuts
6
CONTINUOUS
10
6.6937966929133861
20
-2.9877289370078741
11
6.6439866535433065
21
-3.0305389370078739
0
LINE
8
Edge.Cuts
6
CONTINUOUS
10
6.6439866535433065
20
-3.0305389370078739
11
6.5952112992125986
21
-3.0745241338582678
0
LINE
8
Edge.Cuts
6
CONTINUOUS
10
6.5952112992125986
20
-3.0745241338582678
11
6.5474982677165352
21
-3.1196594881889763
0
LINE
8
Edge.Cuts
6
CONTINUOUS
10
6.5474982677165352
20
-3.1196594881889763
11
6.5008746850393697
21
-3.1659193700787402
0
LINE
8
Edge.Cuts
6
CONTINUOUS
10
6.5008746850393697
20
-3.1659193700787402
11
6.4553670472440947
21
-3.2132774803149604
0
LINE
8
Edge.Cuts
6
CONTINUOUS
10
6.4553670472440947
20
-3.2132774803149604
11
6.4110012598425197
21
-3.2617069291338581
0
LINE
8
Edge.Cuts
6
CONTINUOUS
10
6.4110012598425197
20
-3.2617069291338581
11
6.3678024803149604
21
-3.3111801574803148
0
LINE
8
Edge.Cuts
6
CONTINUOUS
10
6.3678024803149604
20
-3.3111801574803148
11
6.3257952755905507
21
-3.3616690944881888
0
LINE
8
Edge.Cuts
6
CONTINUOUS
10
6.3257952755905507
20
-3.3616690944881888
11
6.2850035433070861
21
-3.4131449606299213
0
LINE
8
Edge.Cuts
6
CONTINUOUS
10
6.2850035433070861
20
-3.4131449606299213
11
6.2454504330708662
21
-3.4655786220472442
0
LINE
8
Edge.Cuts
6
CONTINUOUS
10
6.2454504330708662
20
-3.4655786220472442
11
6.2071584251968499
21
-3.5189401968503935
0
LINE
8
Edge.Cuts
6
CONTINUOUS
10
6.2071584251968499
20
-3.5189401968503935
11
6.1701492913385829
21
-3.5731993700787399
0
LINE
8
Edge.Cuts
6
CONTINUOUS
10
6.1701492913385829
20
-3.5731993700787399
11
6.1344440944881891
21
-3.6283253543307086
0
LINE
8
Edge.Cuts
6
CONTINUOUS
10
6.1344440944881891
20
-3.6283253543307086
11
6.10259562992126
21
-3.6801645275590551
0
LINE
8
Edge.Cuts
6
CONTINUOUS
10
6.10259562992126
20
-3.6801645275590551
11
6.102738858267716
21
-3.6801930314960627
0
LINE
8
Edge.Cuts
6
CONTINUOUS
10
6.102738858267716
20
-3.6801930314960627
11
6.1032715354330707
21
-3.6807257086614174
0
LINE
8
Edge.Cuts
6
CONTINUOUS
10
6.1032715354330707
20
-3.6807257086614174
11
6.103346456692913
21
-3.6811023622047245
0
LINE
8
Edge.Cuts
6
CONTINUOUS
10
6.103346456692913
20
-3.6811023622047245
11
6.103346456692913
21
-6.515748031496063
0
LINE
8
Edge.Cuts
6
CONTINUOUS
10
6.103346456692913
20
-6.515748031496063
11
6.1032715354330707
21
-6.5161246850393697
0
LINE
8
Edge.Cuts
6
CONTINUOUS
10
6.1032715354330707
20
-6.5161246850393697
11
6.102738858267716
21
-6.5166573622047244
0
LINE
8
Edge.Cuts
6
CONTINUOUS
10
6.102738858267716
20
-6.5166573622047244
11
6.1027090157480313
21
-6.5166632677165355
0
LINE
8
Edge.Cuts
6
CONTINUOUS
10
6.1027090157480313
20
-6.5166632677165355
11
6.1268007874015744
21
-6.5563399999999996
0
LINE
8
Edge.Cuts
6
CONTINUOUS
10
6.1268007874015744
20
-6.5563399999999996
11
6.1622177165354328
21
-6.611651614173228
0
LINE
8
Edge.Cuts
6
CONTINUOUS
10
6.1622177165354328
20
-6.611651614173228
11
6.1989430708661413
21
-6.6661032677165357
0
LINE
8
Edge.Cuts
6
CONTINUOUS
10
6.1989430708661413
20
-6.6661032677165357
11
6.2369559448818892
21
-6.7196640551181099
0
LINE
8
Edge.Cuts
6
CONTINUOUS
10
6.2369559448818892
20
-6.7196640551181099
11
6.2762347637795273
21
-6.7723034645669289
0
LINE
8
Edge.Cuts
6
CONTINUOUS
10
6.2762347637795273
20
-6.7723034645669289
11
6.3167572047244089
21
-6.8239916141732282
0
LINE
8
Edge.Cuts
6
CONTINUOUS
10
6.3167572047244089
20
-6.8239916141732282
11
6.3585002362204719
21
-6.874699173228346
0
LINE
8
Edge.Cuts
6
CONTINUOUS
10
6.3585002362204719
20
-6.874699173228346
11
6.401440157480315
21
-6.9243972440944876
0
LINE
8
Edge.Cuts
6
CONTINUOUS
10
6.401440157480315
20
-6.9243972440944876
11
6.4455525196850392
21
-6.9730576377952751
0
LINE
8
Edge.Cuts
6
CONTINUOUS
10
6.4455525196850392
20
-6.9730576377952751
11
6.4908122834645665
21
-7.0206527165354329
0
LINE
8
Edge.Cuts
6
CONTINUOUS
10
6.4908122834645665
20
-7.0206527165354329
11
6.5371937007874017
21
-7.0671553543307084
0
LINE
8
Edge.Cuts
6
CONTINUOUS
10
6.5371937007874017
20
-7.0671553543307084
11
6.5846704330708663
21
-7.112539212598425
0
LINE
8
Edge.Cuts
6
CONTINUOUS
10
6.5846704330708663
20
-7.112539212598425
11
6.6332155118110236
21
-7.1567784251968503
0
LINE
8
Edge.Cuts
6
CONTINUOUS
10
6.6332155118110236
20
-7.1567784251968503
11
6.6828013779527558
21
-7.1998479133858266
0
LINE
8
Edge.Cuts
6
CONTINUOUS
10
6.6828013779527558
20
-7.1998479133858266
11
6.7333997637795271
21
-7.241723188976378
0
LINE
8
Edge.Cuts
6
CONTINUOUS
10
6.7333997637795271
20
-7.241723188976378
11
6.7849819685039368
21
-7.2823804330708661
0
LINE
8
Edge.Cuts
6
CONTINUOUS
10
6.7849819685039368
20
-7.2823804330708661
11
6.8375186614173229
21
-7.3217964960629915
0
LINE
8
Edge.Cuts
6
CONTINUOUS
10
6.8375186614173229
20
-7.3217964960629915
11
6.8909800393700786
21
-7.3599490944881891
0
LINE
8
Edge.Cuts
6
CONTINUOUS
10
6.8909800393700786
20
-7.3599490944881891
11
6.9453356299212601
21
-7.3968164566929131
0
LINE
8
Edge.Cuts
6
CONTINUOUS
10
6.9453356299212601
20
-7.3968164566929131
11
7.0005546062992128
21
-7.432377637795275
0
LINE
8
Edge.Cuts
6
CONTINUOUS
10
7.0005546062992128
20
-7.432377637795275
11
7.0566055905511806
21
-7.4666124803149607
0
LINE
8
Edge.Cuts
6
CONTINUOUS
10
7.0566055905511806
20
-7.4666124803149607
11
7.1134566929133856
21
-7.4995014566929132
0
LINE
8
Edge.Cuts
6
CONTINUOUS
10
7.1134566929133856
20
-7.4995014566929132
11
7.171075669291338
21
-7.5310259448818897
0
LINE
8
Edge.Cuts
6
CONTINUOUS
10
7.171075669291338
20
-7.5310259448818897
11
7.2294296850393698
21
-7.5611679921259842
0
LINE
8
Edge.Cuts
6
CONTINUOUS
10
7.2294296850393698
20
-7.5611679921259842
11
7.2884856299212597
21
-7.5899104724409447
0
LINE
8
Edge.Cuts
6
CONTINUOUS
10
7.2884856299212597
20
-7.5899104724409447
11
7.3482099212598424
21
-7.6172370472440942
0
LINE
8
Edge.Cuts
6
CONTINUOUS
10
7.3482099212598424
20
-7.6172370472440942
11
7.4085686614173225
21
-7.6431322047244095
0
LINE
8
Edge.Cuts
6
CONTINUOUS
10
7.4085686614173225
20
-7.6431322047244095
11
7.4695274803149605
21
-7.6675812204724405
0
LINE
8
Edge.Cuts
6
CONTINUOUS
10
7.4695274803149605
20
-7.6675812204724405
11
7.5310518110236222
21
-7.6905701574803151
0
LINE
8
Edge.Cuts
6
CONTINUOUS
10
7.5310518110236222
20
-7.6905701574803151
11
7.5931066535433072
21
-7.7120860629921255
0
LINE
8
Edge.Cuts
6
CONTINUOUS
10
7.5931066535433072
20
-7.7120860629921255
11
7.6556567322834645
21
-7.7321165748031495
0
LINE
8
Edge.Cuts
6
CONTINUOUS
10
7.6556567322834645
20
-7.7321165748031495
11
7.7186664960629923
21
-7.7506504330708657
0
LINE
8
Edge.Cuts
6
CONTINUOUS
10
7.7186664960629923
20
-7.7506504330708657
11
7.7821001574803148
21
-7.7676770078740152
0
LINE
8
Edge.Cuts
6
CONTINUOUS
10
7.7821001574803148
20
-7.7676770078740152
11
7.8459216929133859
21
-7.7831866535433072
0
LINE
8
Edge.Cuts
6
CONTINUOUS
10
7.8459216929133859
20
-7.7831866535433072
11
7.9100947637795276
21
-7.7971705905511808
0
LINE
8
Edge.Cuts
6
CONTINUOUS
10
7.9100947637795276
20
-7.7971705905511808
11
7.9745829527559051
21
-7.8096208267716536
0
LINE
8
Edge.Cuts
6
CONTINUOUS
10
7.9745829527559051
20
-7.8096208267716536
11
8.0393496062992131
21
-7.8205303149606298
0
LINE
8
Edge.Cuts
6
CONTINUOUS
10
8.0393496062992131
20
-7.8205303149606298
11
8.1043578740157471
21
-7.8298928346456691
0
LINE
8
Edge.Cuts
6
CONTINUOUS
10
8.1043578740157471
20
-7.8298928346456691
11
8.1695709055118115
21
-7.8377030708661417
0
LINE
8
Edge.Cuts
6
CONTINUOUS
10
8.1695709055118115
20
-7.8377030708661417
11
8.2349515354330709
21
-7.8439566141732282
0
LINE
8
Edge.Cuts
6
CONTINUOUS
10
8.2349515354330709
20
-7.8439566141732282
11
8.3004626771653545
21
-7.8486498818897639
0
LINE
8
Edge.Cuts
6
CONTINUOUS
10
8.3004626771653545
20
-7.8486498818897639
11
8.3660670472440941
21
-7.8517801968503935
0
LINE
8
Edge.Cuts
6
CONTINUOUS
10
8.3660670472440941
20
-7.8517801968503935
11
8.4317274015748023
21
-7.8533458267716529
0
LINE
8
Edge.Cuts
6
CONTINUOUS
10
8.4317274015748023
20
-7.8533458267716529
11
8.4974064566929126
21
-7.8533458267716529
0
LINE
8
Edge.Cuts
6
CONTINUOUS
10
8.4974064566929126
20
-7.8533458267716529
11
8.5630668110236225
21
-7.8517801968503935
0
LINE
8
Edge.Cuts
6
CONTINUOUS
10
8.5630668110236225
20
-7.8517801968503935
11
8.6286711811023622
21
-7.8486498818897639
0
LINE
8
Edge.Cuts
6
CONTINUOUS
10
8.6286711811023622
20
-7.8486498818897639
11
8.6941823228346458
21
-7.8439566141732282
0
LINE
8
Edge.Cuts
6
CONTINUOUS
10
8.6941823228346458
20
-7.8439566141732282
11
8.7595629527559051
21
-7.8377030708661417
0
LINE
8
Edge.Cuts
6
CONTINUOUS
10
8.7595629527559051
20
-7.8377030708661417
11
8.8247759842519677
21
-7.8298928346456691
0
LINE
8
Edge.Cuts
6
CONTINUOUS
10
8.8247759842519677
20
-7.8298928346456691
11
8.8897842519685035
21
-7.8205303149606298
0
LINE
8
Edge.Cuts
6
CONTINUOUS
10
8.8897842519685035
20
-7.8205303149606298
11
8.9545509055118107
21
-7.8096208267716536
0
LINE
8
Edge.Cuts
6
CONTINUOUS
10
8.9545509055118107
20
-7.8096208267716536
11
9.0190390944881891
21
-7.7971705905511808
0
LINE
8
Edge.Cuts
6
CONTINUOUS
10
9.0190390944881891
20
-7.7971705905511808
11
9.0832121653543307
21
-7.7831866535433072
0
LINE
8
Edge.Cuts
6
CONTINUOUS
10
9.0832121653543307
20
-7.7831866535433072
11
9.1470337007874019
21
-7.7676770078740152
0
LINE
8
Edge.Cuts
6
CONTINUOUS
10
9.1470337007874019
20
-7.7676770078740152
11
9.2104673622047244
21
-7.7506504330708657
0
LINE
8
Edge.Cuts
6
CONTINUOUS
10
9.2104673622047244
20
-7.7506504330708657
11
9.2734771259842521
21
-7.7321165748031495
0
LINE
8
Edge.Cuts
6
CONTINUOUS
10
9.2734771259842521
20
-7.7321165748031495
11
9.3360272047244095
21
-7.7120860629921255
0
LINE
8
Edge.Cuts
6
CONTINUOUS
10
9.3360272047244095
20
-7.7120860629921255
11
9.3980820472440936
21
-7.6905701574803151
0
LINE
8
Edge.Cuts
6
CONTINUOUS
10
9.3980820472440936
20
-7.6905701574803151
11
9.4596063779527562
21
-7.6675812204724405
0
LINE
8
Edge.Cuts
6
CONTINUOUS
10
9.4596063779527562
20
-7.6675812204724405
11
9.5205651968503933
21
-7.6431322047244095
0
LINE
8
Edge.Cuts
6
CONTINUOUS
10
9.5205651968503933
20
-7.6431322047244095
11
9.5809239370078743
21
-7.6172370472440942
0
LINE
8
Edge.Cuts
6
CONTINUOUS
10
9.5809239370078743
20
-7.6172370472440942
11
9.640648228346457
21
-7.5899104724409447
0
LINE
8
Edge.Cuts
6
CONTINUOUS
10
9.640648228346457
20
-7.5899104724409447
11
9.699704173228346
21
-7.5611679921259842
0
LINE
8
Edge.Cuts
6
CONTINUOUS
10
9.699704173228346
20
-7.5611679921259842
11
9.7580581889763778
21
-7.5310259448818897
0
LINE
8
Edge.Cuts
6
CONTINUOUS
10
9.7580581889763778
20
-7.5310259448818897
11
9.8156771653543302
21
-7.4995014566929132
0
LINE
8
Edge.Cuts
6
CONTINUOUS
10
9.8156771653543302
20
-7.4995014566929132
11
9.872528267716536
21
-7.4666124803149607
0
LINE
8
Edge.Cuts
6
CONTINUOUS
10
9.872528267716536
20
-7.4666124803149607
11
9.9285792519685039
21
-7.432377637795275
0
LINE
8
Edge.Cuts
6
CONTINUOUS
10
9.9285792519685039
20
-7.432377637795275
11
9.9837982283464566
21
-7.3968164566929131
0
LINE
8
Edge.Cuts
6
CONTINUOUS
10
9.9837982283464566
20
-7.3968164566929131
11
10.0381538188976371
21
-7.3599490944881891
0
LINE
8
Edge.Cuts
6
CONTINUOUS
10
10.0381538188976371
20
-7.3599490944881891
11
10.0916151968503929
21
-7.3217964960629915
0
LINE
8
Edge.Cuts
6
CONTINUOUS
10
10.0916151968503929
20
-7.3217964960629915
11
10.1441518897637799
21
-7.2823804330708661
0
LINE
8
Edge.Cuts
6
CONTINUOUS
10
10.1441518897637799
20
-7.2823804330708661
11
10.1957340944881896
21
-7.241723188976378
0
LINE
8
Edge.Cuts
6
CONTINUOUS
10
10.1957340944881896
20
-7.241723188976378
11
10.24633248031496
21
-7.1998479133858266
0
LINE
8
Edge.Cuts
6
CONTINUOUS
10
10.24633248031496
20
-7.1998479133858266
11
10.295918346456693
21
-7.1567784251968503
0
LINE
8
Edge.Cuts
6
CONTINUOUS
10
10.295918346456693
20
-7.1567784251968503
11
10.3444634251968495
21
-7.112539212598425
0
LINE
8
Edge.Cuts
6
CONTINUOUS
10
10.3444634251968495
20
-7.112539212598425
11
10.391940157480315
21
-7.0671553543307084
0
LINE
8
Edge.Cuts
6
CONTINUOUS
10
10.391940157480315
20
-7.0671553543307084
11
10.4383215748031493
21
-7.0206527165354329
0
LINE
8
Edge.Cuts
6
CONTINUOUS
10
10.4383215748031493
20
-7.0206527165354329
11
10.4835813385826775
21
-6.9730576377952751
0
LINE
8
Edge.Cuts
6
CONTINUOUS
10
10.4835813385826775
20
-6.9730576377952751
11
10.5276937007874007
21
-6.9243972440944876
0
LINE
8
Edge.Cuts
6
CONTINUOUS
10
10.5276937007874007
20
-6.9243972440944876
11
10.570633622047243
21
-6.874699173228346
0
LINE
8
Edge.Cuts
6
CONTINUOUS
10
10.570633622047243
20
-6.874699173228346
11
10.6123766535433077
21
-6.8239916141732282
0
LINE
8
Edge.Cuts
6
CONTINUOUS
10
10.6123766535433077
20
-6.8239916141732282
11
10.6528990944881894
21
-6.7723034645669289
0
LINE
8
Edge.Cuts
6
CONTINUOUS
10
10.6528990944881894
20
-6.7723034645669289
11
10.6921779133858266
21
-6.7196640551181099
0
LINE
8
Edge.Cuts
6
CONTINUOUS
10
10.6921779133858266
20
-6.7196640551181099
11
10.7301907874015754
21
-6.6661032677165357
0
LINE
8
Edge.Cuts
6
CONTINUOUS
10
10.7301907874015754
20
-6.6661032677165357
11
10.766916141732283
21
-6.611651614173228
0
LINE
8
Edge.Cuts
6
CONTINUOUS
10
10.766916141732283
20
-6.611651614173228
11
10.8023330708661423
21
-6.5563399999999996
0
LINE
8
Edge.Cuts
6
CONTINUOUS
10
10.8023330708661423
20
-6.5563399999999996
11
10.8264248031496066
21
-6.5166632677165355
0
LINE
8
Edge.Cuts
6
CONTINUOUS
10
10.8264248031496066
20
-6.5166632677165355
11
10.8263949999999998
21
-6.5166573622047244
0
LINE
8
Edge.Cuts
6
CONTINUOUS
10
10.8263949999999998
20
-6.5166573622047244
11
10.8258623228346451
21
-6.5161246850393697
0
LINE
8
Edge.Cuts
6
CONTINUOUS
10
10.8258623228346451
20
-6.5161246850393697
11
10.8257874015748037
21
-6.515748031496063
0
LINE
8
Edge.Cuts
6
CONTINUOUS
10
10.8257874015748037
20
-6.515748031496063
11
10.8257874015748037
21
-3.6811023622047245
0
LINE
8
Edge.Cuts
6
CONTINUOUS
10
10.8257874015748037
20
-3.6811023622047245
11
10.8258623228346451
21
-3.6807257086614174
0
LINE
8
Edge.Cuts
6
CONTINUOUS
10
10.8258623228346451
20
-3.6807257086614174
11
10.8263949999999998
21
-3.6801930314960627
0
LINE
8
Edge.Cuts
6
CONTINUOUS
10
10.8263949999999998
20
-3.6801930314960627
11
10.826538188976377
21
-3.6801645275590551
0
LINE
8
Edge.Cuts
6
CONTINUOUS
10
10.826538188976377
20
-3.6801645275590551
11
10.7946897637795267
21
-3.6283253543307086
0
LINE
8
Edge.Cuts
6
CONTINUOUS
10
10.7946897637795267
20
-3.6283253543307086
11
10.7589845669291329
21
-3.5731993700787399
0
LINE
8
Edge.Cuts
6
CONTINUOUS
10
10.7589845669291329
20
-3.5731993700787399
11
10.7219754330708668
21
-3.5189401968503935
0
LINE
8
Edge.Cuts
6
CONTINUOUS
10
10.7219754330708668
20
-3.5189401968503935
11
10.6836834251968504
21
-3.4655786220472442
0
LINE
8
Edge.Cuts
6
CONTINUOUS
10
10.6836834251968504
20
-3.4655786220472442
11
10.6441303149606306
21
-3.4131449606299213
0
LINE
8
Edge.Cuts
6
CONTINUOUS
10
10.6441303149606306
20
-3.4131449606299213
11
10.6033385826771642
21
-3.3616690944881888
0
LINE
8
Edge.Cuts
6
CONTINUOUS
10
10.6033385826771642
20
-3.3616690944881888
11
10.5613313779527562
21
-3.3111801574803148
0
LINE
8
Edge.Cuts
6
CONTINUOUS
10
10.5613313779527562
20
-3.3111801574803148
11
10.518132598425197
21
-3.2617069291338581
0
LINE
8
Edge.Cuts
6
CONTINUOUS
10
10.518132598425197
20
-3.2617069291338581
11
10.4737668110236211
21
-3.2132774803149604
0
LINE
8
Edge.Cuts
6
CONTINUOUS
10
10.4737668110236211
20
-3.2132774803149604
11
10.4282591732283461
21
-3.1659193700787402
0
LINE
8
Edge.Cuts
6
CONTINUOUS
10
10.4282591732283461
20
-3.1659193700787402
11
10.3816355905511806
21
-3.1196594881889763
0
LINE
8
Edge.Cuts
6
CONTINUOUS
10
10.3816355905511806
20
-3.1196594881889763
11
10.333922559055118
21
-3.0745241338582678
0
LINE
8
Edge.Cuts
6
CONTINUOUS
10
10.333922559055118
20
-3.0745241338582678
11
10.2851472047244084
21
-3.0305389370078739
0
LINE
8
Edge.Cuts
6
CONTINUOUS
10
10.2851472047244084
20
-3.0305389370078739
11
10.2353371653543306
21
-2.9877289370078741
0
LINE
8
Edge.Cuts
6
CONTINUOUS
10
10.2353371653543306
20
-2.9877289370078741
11
10.1845208661417317
21
-2.9461183858267717
0
LINE
8
Edge.Cuts
6
CONTINUOUS
10
10.1845208661417317
20
-2.9461183858267717
11
10.1327270866141728
21
-2.9057310236220473
0
LINE
8
Edge.Cuts
6
CONTINUOUS
10
10.1327270866141728
20
-2.9057310236220473
11
10.0799853149606289
21
-2.8665897244094487
0
LINE
8
Edge.Cuts
6
CONTINUOUS
10
10.0799853149606289
20
-2.8665897244094487
11
10.0263255118110237
21
-2.828716811023622
0
LINE
8
Edge.Cuts
6
CONTINUOUS
10
10.0263255118110237
20
-2.828716811023622
11
9.9717781496062994
21
-2.7921337401574804
0
LINE
8
Edge.Cuts
6
CONTINUOUS
10
9.9717781496062994
20
-2.7921337401574804
11
9.9163742519685041
21
-2.7568612992125985
0
LINE
8
Edge.Cuts
6
CONTINUOUS
10
9.9163742519685041
20
-2.7568612992125985
11
9.8601453149606293
21
-2.7229195669291339
0
LINE
8
Edge.Cuts
6
CONTINUOUS
10
9.8601453149606293
20
-2.7229195669291339
11
9.8031232677165345
21
-2.6903278346456694
0
LINE
8
Edge.Cuts
6
CONTINUOUS
10
9.8031232677165345
20
-2.6903278346456694
11
9.7453405511811013
21
-2.6591046062992127
0
LINE
8
Edge.Cuts
6
CONTINUOUS
10
9.7453405511811013
20
-2.6591046062992127
11
9.6868299606299217
21
-2.6292676377952757
0
LINE
8
Edge.Cuts
6
CONTINUOUS
10
9.6868299606299217
20
-2.6292676377952757
11
9.6276247244094488
21
-2.6008338582677166
0
LINE
8
Edge.Cuts
6
CONTINUOUS
10
9.6276247244094488
20
-2.6008338582677166
11
9.5677585826771647
21
-2.5738194488188975
0
LINE
8
Edge.Cuts
6
CONTINUOUS
10
9.5677585826771647
20
-2.5738194488188975
11
9.5072654724409453
21
-2.5482397637795273
0
LINE
8
Edge.Cuts
6
CONTINUOUS
10
9.5072654724409453
20
-2.5482397637795273
11
9.446179842519685
21
-2.5241093307086615
0
LINE
8
Edge.Cuts
6
CONTINUOUS
10
9.446179842519685
20
-2.5241093307086615
11
9.3845363385826772
21
-2.5014418897637793
0
LINE
8
Edge.Cuts
6
CONTINUOUS
10
9.3845363385826772
20
-2.5014418897637793
11
9.3223699999999994
21
-2.4802502755905511
0
LINE
8
Edge.Cuts
6
CONTINUOUS
10
9.3223699999999994
20
-2.4802502755905511
11
9.2923228346456686
21
-2.4708001968503934
0
LINE
8
Edge.Cuts
6
CONTINUOUS
10
9.2923228346456686
20
-2.4708001968503934
11
9.2923228346456686
21
-3.917322834645669
0
LINE
8
Edge.Cuts
6
CONTINUOUS
10
10.8295931496062998
20
-3.6820866141732282
11
10.8472913385826768
21
-3.711678779527559
0
LINE
8
Edge.Cuts
6
CONTINUOUS
10
10.8472913385826768
20
-3.711678779527559
11
10.8796704724409441
21
-3.7688703937007872
0
LINE
8
Edge.Cuts
6
CONTINUOUS
10
10.8796704724409441
20
-3.7688703937007872
11
10.9106771653543309
21
-3.8268175984251966
0
LINE
8
Edge.Cuts
6
CONTINUOUS
10
10.9106771653543309
20
-3.8268175984251966
11
10.9402937007874019
21
-3.8854874409448819
0
LINE
8
Edge.Cuts
6
CONTINUOUS
10
10.9402937007874019
20
-3.8854874409448819
11
10.9685033464566928
21
-3.9448465748031496
0
LINE
8
Edge.Cuts
6
CONTINUOUS
10
10.9685033464566928
20
-3.9448465748031496
11
10.9952899606299201
21
-4.0048612992125987
0
LINE
8
Edge.Cuts
6
CONTINUOUS
10
10.9952899606299201
20
-4.0048612992125987
11
11.0206384251968501
21
-4.0654974803149608
0
LINE
8
Edge.Cuts
6
CONTINUOUS
10
11.0206384251968501
20
-4.0654974803149608
11
11.0445342519685035
21
-4.1267206692913385
0
LINE
8
Edge.Cuts
6
CONTINUOUS
10
11.0445342519685035
20
-4.1267206692913385
11
11.0669639370078734
21
-4.188496062992126
0
LINE
8
Edge.Cuts
6
CONTINUOUS
10
11.0669639370078734
20
-4.188496062992126
11
11.0879146456692919
21
-4.2507885433070864
0
LINE
8
Edge.Cuts
6
CONTINUOUS
10
11.0879146456692919
20
-4.2507885433070864
11
11.1073745669291331
21
-4.3135627952755904
0
LINE
8
Edge.Cuts
6
CONTINUOUS
10
11.1073745669291331
20
-4.3135627952755904
11
11.1253325590551171
21
-4.3767830314960632
0
LINE
8
Edge.Cuts
6
CONTINUOUS
10
11.1253325590551171
20
-4.3767830314960632
11
11.1417784645669293
21
-4.4404133858267718
0
LINE
8
Edge.Cuts
6
CONTINUOUS
10
11.1417784645669293
20
-4.4404133858267718
11
11.1567029133858266
21
-4.5044176771653541
0
LINE
8
Edge.Cuts
6
CONTINUOUS
10
11.1567029133858266
20
-4.5044176771653541
11
11.1700974803149595
21
-4.5687595669291339
0
LINE
8
Edge.Cuts
6
CONTINUOUS
10
11.1700974803149595
20
-4.5687595669291339
11
11.1819544488188978
21
-4.6334024409448817
0
LINE
8
Edge.Cuts
6
CONTINUOUS
10
11.1819544488188978
20
-4.6334024409448817
11
11.1922671653543304
21
-4.6983095669291339
0
LINE
8
Edge.Cuts
6
CONTINUOUS
10
11.1922671653543304
20
-4.6983095669291339
11
11.2010297637795269
21
-4.7634440944881886
0
LINE
8
Edge.Cuts
6
CONTINUOUS
10
11.2010297637795269
20
-4.7634440944881886
11
11.2082372440944873
21
-4.8287690157480316
0
LINE
8
Edge.Cuts
6
CONTINUOUS
10
11.2082372440944873
20
-4.8287690157480316
11
11.2138854724409445
21
-4.8942471653543302
0
LINE
8
Edge.Cuts
6
CONTINUOUS
10
11.2138854724409445
20
-4.8942471653543302
11
11.2179712992125982
21
-4.9598413385826774
0
LINE
8
Edge.Cuts
6
CONTINUOUS
10
11.2179712992125982
20
-4.9598413385826774
11
11.2204924015748038
21
-5.0255142519685041
0
LINE
8
Edge.Cuts
6
CONTINUOUS
10
11.2204924015748038
20
-5.0255142519685041
11
11.2214472834645669
21
-5.091228622047244
0
LINE
8
Edge.Cuts
6
CONTINUOUS
10
11.2214472834645669
20
-5.091228622047244
11
11.2208354724409443
21
-5.1569470866141733
0
LINE
8
Edge.Cuts
6
CONTINUOUS
10
11.2208354724409443
20
-5.1569470866141733
11
11.2186572834645659
21
-5.2226322834645664
0
LINE
8
Edge.Cuts
6
CONTINUOUS
10
11.2186572834645659
20
-5.2226322834645664
11
11.214913976377952
21
-5.2882468897637791
0
LINE
8
Edge.Cuts
6
CONTINUOUS
10
11.214913976377952
20
-5.2882468897637791
11
11.2096076377952745
21
-5.3537536614173229
0
LINE
8
Edge.Cuts
6
CONTINUOUS
10
11.2096076377952745
20
-5.3537536614173229
11
11.2027413385826762
21
-5.419115275590551
0
LINE
8
Edge.Cuts
6
CONTINUOUS
10
11.2027413385826762
20
-5.419115275590551
11
11.1943188976377943
21
-5.4842946850393703
0
LINE
8
Edge.Cuts
6
CONTINUOUS
10
11.1943188976377943
20
-5.4842946850393703
11
11.1843451968503942
21
-5.5492547637795271
0
LINE
8
Edge.Cuts
6
CONTINUOUS
10
11.1843451968503942
20
-5.5492547637795271
11
11.1728258661417321
21
-5.6139586614173229
0
LINE
8
Edge.Cuts
6
CONTINUOUS
10
11.1728258661417321
20
-5.6139586614173229
11
11.1597674015748023
21
-5.6783696062992126
0
LINE
8
Edge.Cuts
6
CONTINUOUS
10
11.1597674015748023
20
-5.6783696062992126
11
11.1451773228346447
21
-5.7424509448818899
0
LINE
8
Edge.Cuts
6
CONTINUOUS
10
11.1451773228346447
20
-5.7424509448818899
11
11.1290638188976381
21
-5.806166299212598
0
LINE
8
Edge.Cuts
6
CONTINUOUS
10
11.1290638188976381
20
-5.806166299212598
11
11.1114361023622052
21
-5.8694794488188977
0
LINE
8
Edge.Cuts
6
CONTINUOUS
10
11.1114361023622052
20
-5.8694794488188977
11
11.0923042125984246
21
-5.932354409448819
0
LINE
8
Edge.Cuts
6
CONTINUOUS
10
11.0923042125984246
20
-5.932354409448819
11
11.0716789763779531
21
-5.9947554330708659
0
LINE
8
Edge.Cuts
6
CONTINUOUS
10
11.0716789763779531
20
-5.9947554330708659
11
11.0495721259842519
21
-6.0566470866141735
0
LINE
8
Edge.Cuts
6
CONTINUOUS
10
11.0495721259842519
20
-6.0566470866141735
11
11.0259962598425201
21
-6.1179942125984255
0
LINE
8
Edge.Cuts
6
CONTINUOUS
10
11.0259962598425201
20
-6.1179942125984255
11
11.0009647244094477
21
-6.1787618897637797
0
LINE
8
Edge.Cuts
6
CONTINUOUS
10
11.0009647244094477
20
-6.1787618897637797
11
10.9744917716535433
21
-6.2389156299212596
0
LINE
8
Edge.Cuts
6
CONTINUOUS
10
10.9744917716535433
20
-6.2389156299212596
11
10.9465924409448814
21
-6.2984212598425193
0
LINE
8
Edge.Cuts
6
CONTINUOUS
10
10.9465924409448814
20
-6.2984212598425193
11
10.9172825984251958
21
-6.3572449212598423
0
LINE
8
Edge.Cuts
6
CONTINUOUS
10
10.9172825984251958
20
-6.3572449212598423
11
10.8865788582677165
21
-6.4153531889763782
0
LINE
8
Edge.Cuts
6
CONTINUOUS
10
10.8865788582677165
20
-6.4153531889763782
11
10.8544987401574797
21
-6.472713070866142
0
LINE
8
Edge.Cuts
6
CONTINUOUS
10
10.8544987401574797
20
-6.472713070866142
11
10.8296466141732282
21
-6.5147637795275593
0
LINE
8
Edge.Cuts
6
CONTINUOUS
10
10.8296466141732282
20
-6.5147637795275593
11
11.6919291338582667
21
-6.5147637795275593
0
LINE
8
Edge.Cuts
6
CONTINUOUS
10
11.6919291338582667
20
-6.5147637795275593
11
11.6919291338582667
21
-3.6820866141732282
0
LINE
8
Edge.Cuts
6
CONTINUOUS
10
11.6919291338582667
20
-3.6820866141732282
11
10.8295931496062998
21
-3.6820866141732282
0
LINE
8
Edge.Cuts
6
CONTINUOUS
10
5.3159448818897639
20
-3.6820866141732282
11
5.3159448818897639
21
-6.5147637795275593
0
LINE
8
Edge.Cuts
6
CONTINUOUS
10
5.3159448818897639
20
-6.5147637795275593
11
6.0994872440944876
21
-6.5147637795275593
0
LINE
8
Edge.Cuts
6
CONTINUOUS
10
6.0994872440944876
20
-6.5147637795275593
11
6.074635118110236
21
-6.472713070866142
0
LINE
8
Edge.Cuts
6
CONTINUOUS
10
6.074635118110236
20
-6.472713070866142
11
6.0425550000000001
21
-6.4153531889763782
0
LINE
8
Edge.Cuts
6
CONTINUOUS
10
6.0425550000000001
20
-6.4153531889763782
11
6.0118512598425191
21
-6.3572449212598423
0
LINE
8
Edge.Cuts
6
CONTINUOUS
10
6.0118512598425191
20
-6.3572449212598423
11
5.9825414173228344
21
-6.2984212598425193
0
LINE
8
Edge.Cuts
6
CONTINUOUS
10
5.9825414173228344
20
-6.2984212598425193
11
5.9546420866141734
21
-6.2389156299212596
0
LINE
8
Edge.Cuts
6
CONTINUOUS
10
5.9546420866141734
20
-6.2389156299212596
11
5.9281691338582672
21
-6.1787618897637797
0
LINE
8
Edge.Cuts
6
CONTINUOUS
10
5.9281691338582672
20
-6.1787618897637797
11
5.9031375984251966
21
-6.1179942125984255
0
LINE
8
Edge.Cuts
6
CONTINUOUS
10
5.9031375984251966
20
-6.1179942125984255
11
5.8795617322834648
21
-6.0566470866141735
0
LINE
8
Edge.Cuts
6
CONTINUOUS
10
5.8795617322834648
20
-6.0566470866141735
11
5.8574548818897636
21
-5.9947554330708659
0
LINE
8
Edge.Cuts
6
CONTINUOUS
10
5.8574548818897636
20
-5.9947554330708659
11
5.8368296456692912
21
-5.932354409448819
0
LINE
8
Edge.Cuts
6
CONTINUOUS
10
5.8368296456692912
20
-5.932354409448819
11
5.8176977559055114
21
-5.8694794488188977
0
LINE
8
Edge.Cuts
6
CONTINUOUS
10
5.8176977559055114
20
-5.8694794488188977
11
5.8000700393700786
21
-5.806166299212598
0
LINE
8
Edge.Cuts
6
CONTINUOUS
10
5.8000700393700786
20
-5.806166299212598
11
5.7839565354330711
21
-5.7424509448818899
0
LINE
8
Edge.Cuts
6
CONTINUOUS
10
5.7839565354330711
20
-5.7424509448818899
11
5.7693664566929135
21
-5.6783696062992126
0
LINE
8
Edge.Cuts
6
CONTINUOUS
10
5.7693664566929135
20
-5.6783696062992126
11
5.7563079921259845
21
-5.6139586614173229
0
LINE
8
Edge.Cuts
6
CONTINUOUS
10
5.7563079921259845
20
-5.6139586614173229
11
5.7447886614173225
21
-5.5492547637795271
0
LINE
8
Edge.Cuts
6
CONTINUOUS
10
5.7447886614173225
20
-5.5492547637795271
11
5.7348149606299215
21
-5.4842946850393703
0
LINE
8
Edge.Cuts
6
CONTINUOUS
10
5.7348149606299215
20
-5.4842946850393703
11
5.7263925196850396
21
-5.419115275590551
0
LINE
8
Edge.Cuts
6
CONTINUOUS
10
5.7263925196850396
20
-5.419115275590551
11
5.7195262204724404
21
-5.3537536614173229
0
LINE
8
Edge.Cuts
6
CONTINUOUS
10
5.7195262204724404
20
-5.3537536614173229
11
5.7142198818897638
21
-5.2882468897637791
0
LINE
8
Edge.Cuts
6
CONTINUOUS
10
5.7142198818897638
20
-5.2882468897637791
11
5.7104765748031499
21
-5.2226322834645664
0
LINE
8
Edge.Cuts
6
CONTINUOUS
10
5.7104765748031499
20
-5.2226322834645664
11
5.7082983858267715
21
-5.1569470866141733
0
LINE
8
Edge.Cuts
6
CONTINUOUS
10
5.7082983858267715
20
-5.1569470866141733
11
5.7076865748031498
21
-5.091228622047244
0
LINE
8
Edge.Cuts
6
CONTINUOUS
10
5.7076865748031498
20
-5.091228622047244
11
5.7086414566929129
21
-5.0255142519685041
0
LINE
8
Edge.Cuts
6
CONTINUOUS
10
5.7086414566929129
20
-5.0255142519685041
11
5.7111625590551176
21
-4.9598413385826774
0
LINE
8
Edge.Cuts
6
CONTINUOUS
10
5.7111625590551176
20
-4.9598413385826774
11
5.7152483858267713
21
-4.8942471653543302
0
LINE
8
Edge.Cuts
6
CONTINUOUS
10
5.7152483858267713
20
-4.8942471653543302
11
5.7208966141732285
21
-4.8287690157480316
0
LINE
8
Edge.Cuts
6
CONTINUOUS
10
5.7208966141732285
20
-4.8287690157480316
11
5.7281040944881889
21
-4.7634440944881886
0
LINE
8
Edge.Cuts
6
CONTINUOUS
10
5.7281040944881889
20
-4.7634440944881886
11
5.7368666929133854
21
-4.6983095669291339
0
LINE
8
Edge.Cuts
6
CONTINUOUS
10
5.7368666929133854
20
-4.6983095669291339
11
5.7471794094488189
21
-4.6334024409448817
0
LINE
8
Edge.Cuts
6
CONTINUOUS
10
5.7471794094488189
20
-4.6334024409448817
11
5.7590363779527554
21
-4.5687595669291339
0
LINE
8
Edge.Cuts
6
CONTINUOUS
10
5.7590363779527554
20
-4.5687595669291339
11
5.77243094488189
21
-4.5044176771653541
0
LINE
8
Edge.Cuts
6
CONTINUOUS
10
5.77243094488189
20
-4.5044176771653541
11
5.7873553937007873
21
-4.4404133858267718
0
LINE
8
Edge.Cuts
6
CONTINUOUS
10
5.7873553937007873
20
-4.4404133858267718
11
5.8038012992125987
21
-4.3767830314960632
0
LINE
8
Edge.Cuts
6
CONTINUOUS
10
5.8038012992125987
20
-4.3767830314960632
11
5.8217592913385827
21
-4.3135627952755904
0
LINE
8
Edge.Cuts
6
CONTINUOUS
10
5.8217592913385827
20
-4.3135627952755904
11
5.8412192125984248
21
-4.2507885433070864
0
LINE
8
Edge.Cuts
6
CONTINUOUS
10
5.8412192125984248
20
-4.2507885433070864
11
5.8621699212598424
21
-4.188496062992126
0
LINE
8
Edge.Cuts
6
CONTINUOUS
10
5.8621699212598424
20
-4.188496062992126
11
5.8845996062992123
21
-4.1267206692913385
0
LINE
8
Edge.Cuts
6
CONTINUOUS
10
5.8845996062992123
20
-4.1267206692913385
11
5.9084954330708657
21
-4.0654974803149608
0
LINE
8
Edge.Cuts
6
CONTINUOUS
10
5.9084954330708657
20
-4.0654974803149608
11
5.9338438976377947
21
-4.0048612992125987
0
LINE
8
Edge.Cuts
6
CONTINUOUS
10
5.9338438976377947
20
-4.0048612992125987
11
5.9606305118110239
21
-3.9448465748031496
0
LINE
8
Edge.Cuts
6
CONTINUOUS
10
5.9606305118110239
20
-3.9448465748031496
11
5.9888401574803147
21
-3.8854874409448819
0
LINE
8
Edge.Cuts
6
CONTINUOUS
10
5.9888401574803147
20
-3.8854874409448819
11
6.0184566929133858
21
-3.8268175984251966
0
LINE
8
Edge.Cuts
6
CONTINUOUS
10
6.0184566929133858
20
-3.8268175984251966
11
6.0494633858267717
21
-3.7688703937007872
0
LINE
8
Edge.Cuts
6
CONTINUOUS
10
6.0494633858267717
20
-3.7688703937007872
11
6.081842519685039
21
-3.711678779527559
0
LINE
8
Edge.Cuts
6
CONTINUOUS
10
6.081842519685039
20
-3.711678779527559
11
6.0995407086614168
21
-3.6820866141732282
0
LINE
8
Edge.Cuts
6
CONTINUOUS
10
6.0995407086614168
20
-3.6820866141732282
11
5.3159448818897639
21
-3.6820866141732282
0
LINE
8
Edge.Cuts
6
CONTINUOUS
10
6.1000630708661419
20
-3.684286771653543
11
6.0670257874015743
21
-3.7410518503937009
0
LINE
8
Edge.Cuts
6
CONTINUOUS
10
6.0670257874015743
20
-3.7410518503937009
11
6.0353509842519681
21
-3.7985882677165352
0
LINE
8
Edge.Cuts
6
CONTINUOUS
10
6.0353509842519681
20
-3.7985882677165352
11
6.0050567322834647
21
-3.8568634251968503
0
LINE
8
Edge.Cuts
6
CONTINUOUS
10
6.0050567322834647
20
-3.8568634251968503
11
5.9761601968503939
21
-3.9158441338582675
0
LINE
8
Edge.Cuts
6
CONTINUOUS
10
5.9761601968503939
20
-3.9158441338582675
11
5.9486777952755903
21
-3.975496929133858
0
LINE
8
Edge.Cuts
6
CONTINUOUS
10
5.9486777952755903
20
-3.975496929133858
11
5.9226251968503938
21
-4.035787834645669
0
LINE
8
Edge.Cuts
6
CONTINUOUS
10
5.9226251968503938
20
-4.035787834645669
11
5.8980171259842518
21
-4.0966826377952756
0
LINE
8
Edge.Cuts
6
CONTINUOUS
10
5.8980171259842518
20
-4.0966826377952756
11
5.8748676377952753
21
-4.1581467716535432
0
LINE
8
Edge.Cuts
6
CONTINUOUS
10
5.8748676377952753
20
-4.1581467716535432
11
5.8531898425196847
21
-4.2201451968503934
0
LINE
8
Edge.Cuts
6
CONTINUOUS
10
5.8531898425196847
20
-4.2201451968503934
11
5.8329961023622046
21
-4.2826427952755903
0
LINE
8
Edge.Cuts
6
CONTINUOUS
10
5.8329961023622046
20
-4.2826427952755903
11
5.8142978346456688
21
-4.3456039763779524
0
LINE
8
Edge.Cuts
6
CONTINUOUS
10
5.8142978346456688
20
-4.3456039763779524
11
5.7971057480314956
21
-4.4089929921259845
0
LINE
8
Edge.Cuts
6
CONTINUOUS
10
5.7971057480314956
20
-4.4089929921259845
11
5.7814295275590553
21
-4.4727737795275591
0
LINE
8
Edge.Cuts
6
CONTINUOUS
10
5.7814295275590553
20
-4.4727737795275591
11
5.7672781102362203
21
-4.5369101574803148
0
LINE
8
Edge.Cuts
6
CONTINUOUS
10
5.7672781102362203
20
-4.5369101574803148
11
5.7546596062992128
21
-4.6013656299212595
0
LINE
8
Edge.Cuts
6
CONTINUOUS
10
5.7546596062992128
20
-4.6013656299212595
11
5.743581062992126
21
-4.6661035433070861
0
LINE
8
Edge.Cuts
6
CONTINUOUS
10
5.743581062992126
20
-4.6661035433070861
11
5.7340488976377948
21
-4.7310872047244095
0
LINE
8
Edge.Cuts
6
CONTINUOUS
10
5.7340488976377948
20
-4.7310872047244095
11
5.7260684251968499
21
-4.796279566929134
0
LINE
8
Edge.Cuts
6
CONTINUOUS
10
5.7260684251968499
20
-4.796279566929134
11
5.7196442519685036
21
-4.8616436614173226
0
LINE
8
Edge.Cuts
6
CONTINUOUS
10
5.7196442519685036
20
-4.8616436614173226
11
5.7147800000000002
21
-4.9271423228346451
0
LINE
8
Edge.Cuts
6
CONTINUOUS
10
5.7147800000000002
20
-4.9271423228346451
11
5.7114784251968507
21
-4.992738307086614
0
LINE
8
Edge.Cuts
6
CONTINUOUS
10
5.7114784251968507
20
-4.992738307086614
11
5.7097414173228342
21
-5.0583943700787399
0
LINE
8
Edge.Cuts
6
CONTINUOUS
10
5.7097414173228342
20
-5.0583943700787399
11
5.7095699606299215
21
-5.1240731889763778
0
LINE
8
Edge.Cuts
6
CONTINUOUS
10
5.7095699606299215
20
-5.1240731889763778
11
5.710964173228346
21
-5.1897374015748028
0
LINE
8
Edge.Cuts
6
CONTINUOUS
10
5.710964173228346
20
-5.1897374015748028
11
5.7139232283464567
21
-5.2553497244094487
0
LINE
8
Edge.Cuts
6
CONTINUOUS
10
5.7139232283464567
20
-5.2553497244094487
11
5.718445472440945
21
-5.320872913385827
0
LINE
8
Edge.Cuts
6
CONTINUOUS
10
5.718445472440945
20
-5.320872913385827
11
5.7245283070866142
21
-5.3862696456692909
0
LINE
8
Edge.Cuts
6
CONTINUOUS
10
5.7245283070866142
20
-5.3862696456692909
11
5.7321683070866136
21
-5.4515027952755908
0
LINE
8
Edge.Cuts
6
CONTINUOUS
10
5.7321683070866136
20
-5.4515027952755908
11
5.7413611023622044
21
-5.5165353149606302
0
LINE
8
Edge.Cuts
6
CONTINUOUS
10
5.7413611023622044
20
-5.5165353149606302
11
5.7521014960629921
21
-5.5813301968503932
0
LINE
8
Edge.Cuts
6
CONTINUOUS
10
5.7521014960629921
20
-5.5813301968503932
11
5.7643833464566931
21
-5.6458506692913382
0
LINE
8
Edge.Cuts
6
CONTINUOUS
10
5.7643833464566931
20
-5.6458506692913382
11
5.7781997244094487
21
-5.7100600393700782
0
LINE
8
Edge.Cuts
6
CONTINUOUS
10
5.7781997244094487
20
-5.7100600393700782
11
5.7935427165354332
21
-5.7739218503937009
0
LINE
8
Edge.Cuts
6
CONTINUOUS
10
5.7935427165354332
20
-5.7739218503937009
11
5.8104036614173227
21
-5.8373997244094484
0
LINE
8
Edge.Cuts
6
CONTINUOUS
10
5.8104036614173227
20
-5.8373997244094484
11
5.8287729527559051
21
-5.9004576771653543
0
LINE
8
Edge.Cuts
6
CONTINUOUS
10
5.8287729527559051
20
-5.9004576771653543
11
5.8486401181102359
21
-5.9630598425196846
0
LINE
8
Edge.Cuts
6
CONTINUOUS
10
5.8486401181102359
20
-5.9630598425196846
11
5.869993937007874
21
-6.0251706299212593
0
LINE
8
Edge.Cuts
6
CONTINUOUS
10
5.869993937007874
20
-6.0251706299212593
11
5.8928222440944884
21
-6.0867547244094489
0
LINE
8
Edge.Cuts
6
CONTINUOUS
10
5.8928222440944884
20
-6.0867547244094489
11
5.9171120472440943
21
-6.1477772047244095
0
LINE
8
Edge.Cuts
6
CONTINUOUS
10
5.9171120472440943
20
-6.1477772047244095
11
5.9428495275590549
21
-6.2082033070866141
0
LINE
8
Edge.Cuts
6
CONTINUOUS
10
5.9428495275590549
20
-6.2082033070866141
11
5.9700201181102361
21
-6.2679987401574806
0
LINE
8
Edge.Cuts
6
CONTINUOUS
10
5.9700201181102361
20
-6.2679987401574806
11
5.9986083464566926
21
-6.3271295275590553
0
LINE
8
Edge.Cuts
6
CONTINUOUS
10
5.9986083464566926
20
-6.3271295275590553
11
6.0285979527559057
21
-6.3855620078740154
0
LINE
8
Edge.Cuts
6
CONTINUOUS
10
6.0285979527559057
20
-6.3855620078740154
11
6.0599719291338578
21
-6.4432630708661414
0
LINE
8
Edge.Cuts
6
CONTINUOUS
10
6.0599719291338578
20
-6.4432630708661414
11
6.0927124015748033
21
-6.5001998425196845
0
LINE
8
Edge.Cuts
6
CONTINUOUS
10
6.0927124015748033
20
-6.5001998425196845
11
6.1013779527559056
21
-6.5144711023622044
0
LINE
8
Edge.Cuts
6
CONTINUOUS
10
6.1013779527559056
20
-6.5144711023622044
11
6.1013779527559056
21
-3.6821465354330707
0
LINE
8
Edge.Cuts
6
CONTINUOUS
10
6.1013779527559056
20
-3.6821465354330707
11
6.1000630708661419
21
-3.684286771653543
0
LINE
8
Edge.Cuts
6
CONTINUOUS
10
10.8277559055118111
20
-6.5144711023622044
11
10.8364214566929125
21
-6.5001998425196845
0
LINE
8
Edge.Cuts
6
CONTINUOUS
10
10.8364214566929125
20
-6.5001998425196845
11
10.8691619291338579
21
-6.4432630708661414
0
LINE
8
Edge.Cuts
6
CONTINUOUS
10
10.8691619291338579
20
-6.4432630708661414
11
10.900535905511811
21
-6.3855620078740154
0
LINE
8
Edge.Cuts
6
CONTINUOUS
10
10.900535905511811
20
-6.3855620078740154
11
10.9305255118110232
21
-6.3271295275590553
0
LINE
8
Edge.Cuts
6
CONTINUOUS
10
10.9305255118110232
20
-6.3271295275590553
11
10.9591137401574805
21
-6.2679987401574806
0
LINE
8
Edge.Cuts
6
CONTINUOUS
10
10.9591137401574805
20
-6.2679987401574806
11
10.9862843307086617
21
-6.2082033070866141
0
LINE
8
Edge.Cuts
6
CONTINUOUS
10
10.9862843307086617
20
-6.2082033070866141
11
11.0120218110236223
21
-6.1477772047244095
0
LINE
8
Edge.Cuts
6
CONTINUOUS
10
11.0120218110236223
20
-6.1477772047244095
11
11.0363116141732274
21
-6.0867547244094489
0
LINE
8
Edge.Cuts
6
CONTINUOUS
10
11.0363116141732274
20
-6.0867547244094489
11
11.0591399212598418
21
-6.0251706299212593
0
LINE
8
Edge.Cuts
6
CONTINUOUS
10
11.0591399212598418
20
-6.0251706299212593
11
11.0804937401574808
21
-5.9630598425196846
0
LINE
8
Edge.Cuts
6
CONTINUOUS
10
11.0804937401574808
20
-5.9630598425196846
11
11.1003609055118115
21
-5.9004576771653543
0
LINE
8
Edge.Cuts
6
CONTINUOUS
10
11.1003609055118115
20
-5.9004576771653543
11
11.1187301968503931
21
-5.8373997244094484
0
LINE
8
Edge.Cuts
6
CONTINUOUS
10
11.1187301968503931
20
-5.8373997244094484
11
11.1355911417322826
21
-5.7739218503937009
0
LINE
8
Edge.Cuts
6
CONTINUOUS
10
11.1355911417322826
20
-5.7739218503937009
11
11.1509341338582679
21
-5.7100600393700782
0
LINE
8
Edge.Cuts
6
CONTINUOUS
10
11.1509341338582679
20
-5.7100600393700782
11
11.1647505118110235
21
-5.6458506692913382
0
LINE
8
Edge.Cuts
6
CONTINUOUS
10
11.1647505118110235
20
-5.6458506692913382
11
11.1770323622047236
21
-5.5813301968503932
0
LINE
8
Edge.Cuts
6
CONTINUOUS
10
11.1770323622047236
20
-5.5813301968503932
11
11.1877727559055113
21
-5.5165353149606302
0
LINE
8
Edge.Cuts
6
CONTINUOUS
10
11.1877727559055113
20
-5.5165353149606302
11
11.1969655511811013
21
-5.4515027952755908
0
LINE
8
Edge.Cuts
6
CONTINUOUS
10
11.1969655511811013
20
-5.4515027952755908
11
11.2046055511811016
21
-5.3862696456692909
0
LINE
8
Edge.Cuts
6
CONTINUOUS
10
11.2046055511811016
20
-5.3862696456692909
11
11.2106883858267707
21
-5.320872913385827
0
LINE
8
Edge.Cuts
6
CONTINUOUS
10
11.2106883858267707
20
-5.320872913385827
11
11.2152106299212591
21
-5.2553497244094487
0
LINE
8
Edge.Cuts
6
CONTINUOUS
10
11.2152106299212591
20
-5.2553497244094487
11
11.2181696850393706
21
-5.1897374015748028
0
LINE
8
Edge.Cuts
6
CONTINUOUS
10
11.2181696850393706
20
-5.1897374015748028
11
11.2195638976377943
21
-5.1240731889763778
0
LINE
8
Edge.Cuts
6
CONTINUOUS
10
11.2195638976377943
20
-5.1240731889763778
11
11.2193924409448815
21
-5.0583943700787399
0
LINE
8
Edge.Cuts
6
CONTINUOUS
10
11.2193924409448815
20
-5.0583943700787399
11
11.2176554330708651
21
-4.992738307086614
0
LINE
8
Edge.Cuts
6
CONTINUOUS
10
11.2176554330708651
20
-4.992738307086614
11
11.2143538582677156
21
-4.9271423228346451
0
LINE
8
Edge.Cuts
6
CONTINUOUS
10
11.2143538582677156
20
-4.9271423228346451
11
11.2094896062992131
21
-4.8616436614173226
0
LINE
8
Edge.Cuts
6
CONTINUOUS
10
11.2094896062992131
20
-4.8616436614173226
11
11.2030654330708668
21
-4.796279566929134
0
LINE
8
Edge.Cuts
6
CONTINUOUS
10
11.2030654330708668
20
-4.796279566929134
11
11.1950849606299219
21
-4.7310872047244095
0
LINE
8
Edge.Cuts
6
CONTINUOUS
10
11.1950849606299219
20
-4.7310872047244095
11
11.1855527952755907
21
-4.6661035433070861
0
LINE
8
Edge.Cuts
6
CONTINUOUS
10
11.1855527952755907
20
-4.6661035433070861
11
11.174474251968503
21
-4.6013656299212595
0
LINE
8
Edge.Cuts
6
CONTINUOUS
10
11.174474251968503
20
-4.6013656299212595
11
11.1618557480314955
21
-4.5369101574803148
0
LINE
8
Edge.Cuts
6
CONTINUOUS
10
11.1618557480314955
20
-4.5369101574803148
11
11.1477043307086614
21
-4.4727737795275591
0
LINE
8
Edge.Cuts
6
CONTINUOUS
10
11.1477043307086614
20
-4.4727737795275591
11
11.1320281102362202
21
-4.4089929921259845
0
LINE
8
Edge.Cuts
6
CONTINUOUS
10
11.1320281102362202
20
-4.4089929921259845
11
11.1148360236220469
21
-4.3456039763779524
0
LINE
8
Edge.Cuts
6
CONTINUOUS
10
11.1148360236220469
20
-4.3456039763779524
11
11.0961377559055112
21
-4.2826427952755903
0
LINE
8
Edge.Cuts
6
CONTINUOUS
10
11.0961377559055112
20
-4.2826427952755903
11
11.075944015748032
21
-4.2201451968503934
0
LINE
8
Edge.Cuts
6
CONTINUOUS
10
11.075944015748032
20
-4.2201451968503934
11
11.0542662204724405
21
-4.1581467716535432
0
LINE
8
Edge.Cuts
6
CONTINUOUS
10
11.0542662204724405
20
-4.1581467716535432
11
11.0311167322834649
21
-4.0966826377952756
0
LINE
8
Edge.Cuts
6
CONTINUOUS
10
11.0311167322834649
20
-4.0966826377952756
11
11.0065086614173229
21
-4.035787834645669
0
LINE
8
Edge.Cuts
6
CONTINUOUS
10
11.0065086614173229
20
-4.035787834645669
11
10.9804560629921255
21
-3.975496929133858
0
LINE
8
Edge.Cuts
6
CONTINUOUS
10
10.9804560629921255
20
-3.975496929133858
11
10.9529736614173228
21
-3.9158441338582675
0
LINE
8
Edge.Cuts
6
CONTINUOUS
10
10.9529736614173228
20
-3.9158441338582675
11
10.9240771259842511
21
-3.8568634251968503
0
LINE
8
Edge.Cuts
6
CONTINUOUS
10
10.9240771259842511
20
-3.8568634251968503
11
10.8937828740157485
21
-3.7985882677165352
0
LINE
8
Edge.Cuts
6
CONTINUOUS
10
10.8937828740157485
20
-3.7985882677165352
11
10.8621080708661406
21
-3.7410518503937009
0
LINE
8
Edge.Cuts
6
CONTINUOUS
10
10.8621080708661406
20
-3.7410518503937009
11
10.8290707874015748
21
-3.684286771653543
0
LINE
8
Edge.Cuts
6
CONTINUOUS
10
10.8290707874015748
20
-3.684286771653543
11
10.8277559055118111
21
-3.6821465354330707
0
LINE
8
Edge.Cuts
6
CONTINUOUS
10
10.8277559055118111
20
-3.6821465354330707
11
10.8277559055118111
21
-6.5144711023622044
  0
ENDSEC
  0
EOF
