  0
SECTION
  2
HEADER
  9
$ANGBASE
  50
0.0
  9
$ANGDIR
  70
1
  9
$MEASUREMENT
  70
0
  9
$INSUNITS
  70
1
  0
ENDSEC
  0
SECTION
  2
TABLES
  0
TABLE
  2
LTYPE
  70
4
  0
LTYPE
  5
40F
  2
CONTINUOUS
  70
0
  3
Solid line
  72
65
  73
0
  40
0.0
  0
LTYPE
  5
410
  2
DASHDOT
 70
0
  3
Dash Dot ____ _ ____ _
 72
65
 73
4
 40
2.0
 49
1.25
 49
-0.25
 49
0.25
 49
-0.25
  0
LTYPE
  5
411
  2
DASHED
 70
0
  3
Dashed __ __ __ __ __
 72
65
 73
2
 40
0.75
 49
0.5
 49
-0.25
  0
LTYPE
  5
43B
  2
DOTTED
 70
0
  3
Dotted .  .  .  .
 72
65
 73
2
 40
0.2
 49
0.0
 49
-0.2
  0
ENDTAB
  0
TABLE
  2
STYLE
  70
4
  0
STYLE
  2
KICAD
  70
0
  40
0
  41
1
  42
1
  50
0
  71
0
  3
isocp.shx
  0
STYLE
  2
KICADB
  70
0
  40
0
  41
1
  42
1
  50
0
  71
0
  3
isocp.shx
  0
STYLE
  2
KICADI
  70
0
  40
0
  41
1
  42
1
  50
15
  71
0
  3
isocp.shx
  0
STYLE
  2
KICADBI
  70
0
  40
0
  41
1
  42
1
  50
15
  71
0
  3
isocp.shx
  0
ENDTAB
  0
TABLE
  2
LAYER
  70
3
  0
LAYER
  2
F.Silkscreen
  70
0
  62
41
  420
15920545
  6
CONTINUOUS
  0
LAYER
  2
B.Silkscreen
  70
0
  62
31
  420
15250087
  6
CONTINUOUS
  0
LAYER
  2
Edge.Cuts
  70
0
  62
254
  420
13685453
  6
CONTINUOUS
  0
ENDTAB
  0
ENDSEC
  0
SECTION
  2
ENTITIES
0
LINE
8
B.Silkscreen
6
CONTINUOUS
10
6.2992125984251963
20
-6.8110236220472435
11
6.1023622047244093
21
-6.5354330708661417
0
LINE
8
B.Silkscreen
6
CONTINUOUS
10
6.1023622047244093
20
-6.5354330708661417
11
6.1023622047244093
21
-3.6614173228346454
0
LINE
8
B.Silkscreen
6
CONTINUOUS
10
6.1023622047244093
20
-3.6614173228346454
11
6.2795275590551176
21
-3.4055118110236218
0
LINE
8
B.Silkscreen
6
CONTINUOUS
10
6.2795275590551176
20
-3.4055118110236218
11
6.2992125984251963
21
-3.3858267716535431
0
LINE
8
B.Silkscreen
6
CONTINUOUS
10
6.2992125984251963
20
-3.3858267716535431
11
6.2992125984251963
21
-6.8110236220472435
0
LINE
8
B.Silkscreen
6
CONTINUOUS
10
10.8267716535433074
20
-3.6614173228346454
11
10.8267716535433074
21
-6.5354330708661417
0
LINE
8
B.Silkscreen
6
CONTINUOUS
10
10.8267716535433074
20
-6.5354330708661417
11
10.6496062992125982
21
-6.7913385826771648
0
LINE
8
B.Silkscreen
6
CONTINUOUS
10
10.6496062992125982
20
-6.7913385826771648
11
10.6299212598425186
21
-6.8110236220472435
0
LINE
8
B.Silkscreen
6
CONTINUOUS
10
10.6299212598425186
20
-6.8110236220472435
11
10.6299212598425186
21
-3.3858267716535431
0
LINE
8
B.Silkscreen
6
CONTINUOUS
10
10.6299212598425186
20
-3.3858267716535431
11
10.8267716535433074
21
-3.6614173228346454
  0
ENDSEC
  0
EOF
